<svg width="275" height="264" viewBox="0 0 275 264" fill="none" xmlns="http://www.w3.org/2000/svg">
<path d="M48.7888 181.247H43.1739C42.3195 180.514 41.343 179.782 40.1224 179.172C28.5265 172.458 9.60698 172.58 -1.98889 179.294C-3.08744 179.904 -4.06389 180.636 -4.91832 181.247H-10.7773V192.232H-10.6552C-10.2891 196.382 -7.48163 200.41 -2.11092 203.462C9.48494 210.175 28.4045 210.053 40.0004 203.34C45.3711 200.288 48.3005 196.26 48.6667 192.11H48.7888V181.247Z" fill="#23322D"/>
<path d="M19.2498 198.716C35.6985 198.62 48.9879 190.837 48.9323 181.331C48.8768 171.826 35.4974 164.199 19.0486 164.295C2.59991 164.391 -10.6893 172.174 -10.6338 181.679C-10.5782 191.185 2.80109 198.812 19.2498 198.716Z" fill="#F1F9F6"/>
<path d="M19.2293 195.417C32.577 195.339 43.3612 189.046 43.3162 181.361C43.2713 173.676 32.4144 167.509 19.0666 167.587C5.7189 167.665 -5.06515 173.958 -5.02023 181.644C-4.97532 189.329 5.88156 195.495 19.2293 195.417Z" fill="#88C8B0"/>
<path d="M48.7888 169.038H43.1739C42.3195 168.305 41.343 167.573 40.1224 166.963C28.5265 160.249 9.60698 160.371 -1.98889 167.085C-3.08744 167.695 -4.06389 168.427 -4.91832 169.038H-10.7773V180.023H-10.6552C-10.2891 184.173 -7.48163 188.201 -2.11092 191.253C9.48494 197.966 28.4045 197.844 40.0004 191.131C45.3711 188.079 48.3005 184.051 48.6667 179.901H48.7888V169.038Z" fill="#23322D"/>
<path d="M19.2498 186.507C35.6985 186.411 48.9879 178.628 48.9323 169.122C48.8768 159.617 35.4974 151.99 19.0486 152.086C2.59991 152.182 -10.6893 159.965 -10.6338 169.47C-10.5782 178.976 2.80109 186.603 19.2498 186.507Z" fill="#F1F9F6"/>
<path d="M19.2293 183.208C32.577 183.13 43.3612 176.837 43.3162 169.152C43.2713 161.467 32.4144 155.3 19.0666 155.378C5.7189 155.456 -5.06515 161.749 -5.02023 169.435C-4.97532 177.12 5.88156 183.286 19.2293 183.208Z" fill="#88C8B0"/>
<path d="M48.7888 156.854H43.1739C42.3195 156.122 41.343 155.389 40.1224 154.779C28.5265 148.066 9.60698 148.188 -1.98889 154.901C-3.08744 155.511 -4.06389 156.244 -4.91832 156.854H-10.7773V167.84H-10.6552C-10.2891 171.99 -7.48163 176.018 -2.11092 179.069C9.48494 185.783 28.4045 185.661 40.0004 178.947C45.3711 175.896 48.3005 171.868 48.6667 167.718H48.7888V156.854Z" fill="#23322D"/>
<path d="M19.2498 174.308C35.6985 174.212 48.9879 166.428 48.9323 156.923C48.8768 147.418 35.4974 139.79 19.0486 139.886C2.59991 139.983 -10.6893 147.766 -10.6338 157.271C-10.5782 166.776 2.80109 174.404 19.2498 174.308Z" fill="#F1F9F6"/>
<path d="M19.2293 171.009C32.577 170.931 43.3612 164.638 43.3162 156.953C43.2713 149.268 32.4144 143.101 19.0666 143.179C5.7189 143.257 -5.06515 149.55 -5.02023 157.235C-4.97532 164.92 5.88156 171.087 19.2293 171.009Z" fill="#88C8B0"/>
<path d="M48.7888 144.526H43.1739C42.3195 143.794 41.343 143.061 40.1224 142.451C28.5265 135.738 9.60698 135.86 -1.98889 142.573C-3.08744 143.183 -4.06389 143.916 -4.91832 144.526H-10.7773V155.512H-10.6552C-10.2891 159.662 -7.48163 163.69 -2.11092 166.741C9.48494 173.455 28.4045 173.333 40.0004 166.619C45.3711 163.568 48.3005 159.54 48.6667 155.39H48.7888V144.526Z" fill="#23322D"/>
<path d="M19.2498 162.105C35.6985 162.009 48.9879 154.225 48.9323 144.72C48.8768 135.215 35.4974 127.587 19.0486 127.683C2.59991 127.779 -10.6893 135.563 -10.6338 145.068C-10.5782 154.573 2.80109 162.201 19.2498 162.105Z" fill="#F1F9F6"/>
<path d="M19.2293 158.806C32.577 158.728 43.3612 152.435 43.3162 144.75C43.2713 137.065 32.4144 130.898 19.0666 130.976C5.7189 131.054 -5.06515 137.347 -5.02023 145.032C-4.97532 152.717 5.88156 158.884 19.2293 158.806Z" fill="#D05F0D"/>
<path d="M-19.8125 213.85L151.44 312.72L322.693 213.85L151.44 114.98L-19.8125 213.85Z" fill="#F1F9F6"/>
<path d="M-19.8125 223.008V213.854L151.44 312.724V322L-19.8125 223.008Z" fill="#88C8B0"/>
<path d="M322.815 213.854V223.008L151.562 321.878V312.601L322.815 213.854Z" fill="#23322D"/>
<path d="M-4.30859 205.067L151.442 294.904L307.193 205.067L151.442 115.107L-4.30859 205.067Z" fill="#F1F9F6"/>
<path d="M-4.30859 213.366V204.943L151.442 294.781V303.203L-4.30859 213.366Z" fill="#88C8B0"/>
<path d="M307.192 205.059V213.481L151.441 303.318V294.896L307.192 205.059Z" fill="#23322D"/>
<path d="M9.84766 195.91L151.439 277.57L293.031 195.91L151.439 114.129L9.84766 195.91Z" fill="#F1F9F6"/>
<path d="M9.84766 203.478V195.91L151.439 277.569V285.137L9.84766 203.478Z" fill="#88C8B0"/>
<path d="M293.033 195.91V203.478L151.441 285.259V277.691L293.033 195.91Z" fill="#23322D"/>
<path d="M89.5547 216.906L106.887 226.915L124.22 216.906L106.887 206.896L89.5547 216.906Z" fill="#F1F9F6"/>
<path d="M89.5547 219.466V216.902L106.887 226.911V229.475L89.5547 219.466Z" fill="#88C8B0"/>
<path d="M124.098 216.902V219.466L106.766 229.475V226.911L124.098 216.902Z" fill="#23322D"/>
<path d="M124.102 236.917L141.434 246.926L158.767 236.917L141.434 226.908L124.102 236.917Z" fill="#F1F9F6"/>
<path d="M124.102 239.489V236.926L141.434 246.935V249.498L124.102 239.489Z" fill="#88C8B0"/>
<path d="M158.638 236.926V239.489L141.305 249.498V246.935L158.638 236.926Z" fill="#23322D"/>
<path d="M55.0117 197.009L72.3445 207.018L89.6773 197.009L72.3445 187L55.0117 197.009Z" fill="#F1F9F6"/>
<path d="M55.0117 199.575V197.012L72.3445 207.021V209.584L55.0117 199.575Z" fill="#88C8B0"/>
<path d="M89.6765 197.012V199.575L72.3438 209.584V207.021L89.6765 197.012Z" fill="#23322D"/>
<path d="M92.6055 90.2008L174.753 42.7188L256.901 90.2008L174.753 137.683L92.6055 90.2008Z" fill="#F1F9F6"/>
<path d="M92.6055 90.2012V185.043L174.753 232.525V137.683L92.6055 90.2012Z" fill="#88C8B0"/>
<path d="M257.025 90.2012V185.043L174.877 232.525V137.683L257.025 90.2012Z" fill="#23322D"/>
<path d="M151.927 172.232C151.927 173.696 150.951 175.039 149.12 176.138C145.458 178.335 139.355 178.335 135.571 176.138C133.74 175.039 132.764 173.696 132.764 172.232C132.764 170.767 133.74 169.424 135.571 168.326C139.233 166.128 145.336 166.128 149.12 168.326C150.951 169.424 151.927 170.767 151.927 172.232Z" fill="#F1F9F6"/>
<path d="M151.927 172.236V234.488C151.927 235.953 150.951 237.295 149.12 238.394C145.458 240.591 139.355 240.591 135.571 238.394C133.74 237.295 132.764 235.953 132.764 234.488V172.236C132.764 173.701 133.74 175.044 135.571 176.142C139.233 178.339 145.336 178.339 149.12 176.142C150.951 175.044 151.927 173.701 151.927 172.236Z" fill="#23322D"/>
<path d="M116.41 153.915C116.41 155.38 115.433 156.723 113.602 157.821C109.941 160.018 103.837 160.018 100.054 157.821C98.2226 156.723 97.2461 155.38 97.2461 153.915C97.2461 152.45 98.2226 151.108 100.054 150.009C103.715 147.812 109.818 147.812 113.602 150.009C115.433 151.108 116.41 152.572 116.41 153.915Z" fill="#F1F9F6"/>
<path d="M116.41 153.914V216.166C116.41 217.63 115.433 218.973 113.602 220.072C109.941 222.269 103.837 222.269 100.054 220.072C98.2226 218.973 97.2461 217.63 97.2461 216.166V153.914C97.2461 155.379 98.2226 156.721 100.054 157.82C103.715 160.017 109.818 160.017 113.602 157.82C115.433 156.844 116.41 155.379 116.41 153.914Z" fill="#23322D"/>
<path d="M81.8629 132.921C81.8629 134.386 80.8864 135.728 79.0555 136.827C75.3937 139.024 69.2905 139.024 65.5066 136.827C63.6757 135.728 62.6992 134.386 62.6992 132.921C62.6992 131.456 63.6757 130.114 65.5066 129.015C69.1685 126.818 75.2716 126.818 79.0555 129.015C80.8864 130.114 81.8629 131.456 81.8629 132.921Z" fill="#F1F9F6"/>
<path d="M81.8629 132.936V195.187C81.8629 196.652 80.8864 197.994 79.0555 199.093C75.3937 201.29 69.2905 201.29 65.5066 199.093C63.6757 197.994 62.6992 196.652 62.6992 195.187V132.936C62.6992 134.4 63.6757 135.743 65.5066 136.842C69.1685 139.039 75.2716 139.039 79.0555 136.842C80.8864 135.743 81.8629 134.278 81.8629 132.936Z" fill="#23322D"/>
<path d="M9.84766 111.323L151.439 192.983L293.031 111.323L151.439 29.6641L9.84766 111.323Z" fill="#F1F9F6"/>
<path d="M9.84766 119.007V111.439L151.439 193.099V200.667L9.84766 119.007Z" fill="#88C8B0"/>
<path d="M293.033 111.312V118.88L151.441 200.54V192.972L293.033 111.312Z" fill="#23322D"/>
<path d="M17.4199 100.332V110.463L151.444 187.85V177.719L17.4199 100.332Z" fill="#F1F9F6"/>
<path d="M285.465 100.332V110.463L151.441 187.85V177.719L285.465 100.332Z" fill="#23322D"/>
<path d="M151.441 187.849L165.356 185.041L293.033 111.316L285.465 106.922V110.34L151.441 187.849Z" fill="#23322D"/>
<path d="M9.84766 96.1855L151.439 177.723V165.761L80.6434 81.6602L9.84766 84.7117V96.1855Z" fill="#88C8B0"/>
<path d="M80.6406 81.6593L222.232 0L293.028 84.1005L151.436 165.76L80.6406 81.6593Z" fill="#23322D"/>
<path d="M9.84766 84.8358L80.6434 81.7843L222.235 0.125L151.439 3.17654L9.84766 84.8358Z" fill="#F1F9F6"/>
<path d="M293.033 96.0597V84.0977L151.441 165.757V177.719L293.033 96.0597Z" fill="#23322D"/>
<path d="M143.993 164.664V167.959L13.875 92.8914V89.4736L18.0251 89.3516V90.5722L141.674 161.856L143.993 164.664Z" fill="#F1F9F6"/>
<path d="M141.554 161.859L18.0273 90.5749V89.3543L79.4244 86.791L141.554 161.859Z" fill="#F1F9F6"/>
<path d="M141.554 161.605L18.0273 90.321V89.1004L79.4244 86.5371L141.554 161.605Z" fill="#88C8B0"/>
<path d="M257.399 260.355L285.229 276.468L236.893 304.542L209.062 288.43L257.399 260.355ZM241.409 299.049L275.464 279.275C272.657 277.688 272.413 275.125 274.854 273.66C274.976 273.538 275.098 273.538 275.22 273.538L262.526 266.214C262.404 266.336 262.281 266.336 262.159 266.459C259.596 267.923 255.324 267.801 252.394 266.214L218.339 285.988C221.147 287.575 221.391 290.139 218.827 291.603L231.4 298.927C234.207 297.218 238.601 297.462 241.409 299.049Z" fill="white"/>
<path d="M257.399 255.838L285.229 271.95L236.893 300.024L209.062 283.912L257.399 255.838ZM241.409 294.531L275.464 274.757C272.657 273.171 272.413 270.607 274.854 269.143C274.976 269.021 275.098 269.021 275.22 269.021L262.526 261.697C262.404 261.819 262.281 261.819 262.159 261.941C259.596 263.406 255.324 263.284 252.394 261.697L218.339 281.471C221.147 283.058 221.391 285.621 218.827 287.086L231.4 294.409C234.329 292.701 238.601 292.945 241.409 294.531Z" fill="white"/>
<path d="M275.46 274.753L241.527 294.527C238.719 292.94 234.325 292.696 231.762 294.283L219.189 286.959C221.753 285.494 221.509 282.931 218.701 281.344L252.756 261.57C255.564 263.157 259.958 263.279 262.521 261.814C262.643 261.692 262.766 261.692 262.888 261.57L275.582 268.894C275.46 268.894 275.338 269.016 275.216 269.016C272.408 270.603 272.652 273.166 275.46 274.753ZM235.057 285.006C240.794 288.302 250.803 287.813 257.517 283.907C264.23 280.001 264.963 274.142 259.226 270.847C253.489 267.551 243.48 268.039 236.766 271.945C230.175 275.851 229.443 281.71 235.057 285.006Z" fill="#8ECC37"/>
<path d="M259.35 266.462C265.087 269.758 264.355 275.617 257.641 279.523C250.928 283.429 240.919 283.917 235.182 280.621C229.445 277.326 230.299 271.467 236.891 267.561C243.482 263.533 253.613 263.044 259.35 266.462ZM252.148 277.936L253.247 278.546L255.566 277.203L254.346 276.593L255.444 275.983V273.542L253.247 272.199L251.294 271.833L243.726 273.542L243.116 273.42L242.75 273.175V272.565L245.557 270.856L248.364 270.002L246.778 268.171L243.604 269.025L242.628 269.514L241.407 268.781L239.088 270.124L240.308 270.734L239.21 271.345V273.786L241.407 275.128L243.36 275.495L250.928 273.786L251.538 273.908L251.904 274.152V274.762L249.097 276.471L246.289 277.326L247.876 279.156L251.05 278.302L252.148 277.936Z" fill="#278704"/>
<path d="M257.399 251.326L285.229 267.438L236.893 295.512L209.062 279.4L257.399 251.326ZM241.409 290.02L275.464 270.246C272.657 268.659 272.413 266.096 274.854 264.631C274.976 264.509 275.098 264.509 275.22 264.509L262.526 257.185C262.404 257.307 262.281 257.307 262.159 257.429C259.596 258.894 255.324 258.772 252.394 257.185L218.339 276.959C221.147 278.546 221.391 281.109 218.827 282.574L231.4 289.898C234.329 288.189 238.601 288.311 241.409 290.02Z" fill="white"/>
<path d="M275.46 270.243L241.527 290.017C238.719 288.43 234.325 288.186 231.762 289.773L219.189 282.449C221.753 280.985 221.509 278.421 218.701 276.835L252.756 257.061C255.564 258.647 259.958 258.769 262.521 257.305C262.643 257.183 262.766 257.183 262.888 257.061L275.582 264.384C275.46 264.384 275.338 264.506 275.216 264.506C272.408 266.093 272.652 268.656 275.46 270.243ZM235.057 280.496C240.794 283.792 250.803 283.304 257.517 279.398C264.23 275.492 264.963 269.633 259.226 266.337C253.489 263.042 243.48 263.53 236.766 267.436C230.175 271.342 229.443 277.201 235.057 280.496Z" fill="#8ECC37"/>
<path d="M259.35 261.947C265.087 265.242 264.232 271.101 257.641 275.007C250.928 278.913 240.919 279.401 235.182 276.106C229.445 272.81 230.299 266.951 236.891 263.045C243.482 259.017 253.613 258.529 259.35 261.947ZM252.148 273.42L253.369 274.031L255.688 272.688L254.468 272.078L255.566 271.467V269.026L253.369 267.684L251.416 267.317L243.848 269.026L243.116 268.904L242.75 268.66V268.05L245.557 266.341L248.364 265.486L246.778 263.656L243.604 264.51L242.628 264.998L241.407 264.266L239.088 265.609L240.186 266.219L239.088 266.829V269.27L241.285 270.613L243.238 270.979L250.806 269.27L251.416 269.392L251.782 269.637V270.247L248.975 271.956L246.167 272.81L247.754 274.641L250.928 273.787L252.148 273.42Z" fill="#278704"/>
<path d="M257.399 246.819L285.229 262.931L236.893 291.005L209.062 274.893L257.399 246.819ZM241.409 285.512L275.464 265.738C272.657 264.151 272.413 261.588 274.854 260.123C274.976 260.001 275.098 260.001 275.22 260.001L262.526 252.678C262.404 252.8 262.281 252.8 262.159 252.922C259.596 254.386 255.324 254.264 252.394 252.678L218.339 272.452C221.147 274.038 221.391 276.602 218.827 278.066L231.4 285.39C234.207 283.681 238.601 283.803 241.409 285.512Z" fill="white"/>
<path d="M246.779 263.903L248.244 265.611L245.436 266.466L242.629 268.053V268.785L242.995 269.029L243.727 269.151L251.295 267.32L253.248 267.687L255.567 269.029V271.47L254.469 272.081L255.567 272.813L253.248 274.156L252.149 273.423L251.173 274.034L247.999 274.888L246.413 273.057L249.22 272.325L252.149 270.616V270.006L251.661 269.762L251.051 269.64L243.483 271.348L241.408 270.982L239.211 269.762V267.32L240.31 266.588L239.211 265.978L241.408 264.635L242.629 265.245L243.605 264.757L246.779 263.903Z" fill="#8ECC37"/>
<path d="M275.46 265.726L241.527 285.5C238.719 283.913 234.325 283.669 231.762 285.256L219.189 277.932C221.753 276.467 221.509 273.904 218.701 272.317L252.756 252.543C255.564 254.13 259.958 254.252 262.521 252.787C262.643 252.665 262.766 252.665 262.888 252.543L275.582 259.867C275.46 259.867 275.338 259.989 275.216 259.989C272.408 261.576 272.652 264.139 275.46 265.726ZM235.057 275.979C240.794 279.275 250.803 278.786 257.517 274.88C264.23 270.975 264.963 265.116 259.226 261.82C253.489 258.524 243.48 259.012 236.766 262.918C230.175 266.824 229.443 272.683 235.057 275.979Z" fill="#8ECC37"/>
<path d="M285.226 262.914V265.722L237.012 293.796V290.988L285.226 262.914Z" fill="#23322D"/>
<path d="M257.399 242.289L285.229 258.401L236.893 286.475L209.062 270.363L257.399 242.289ZM241.409 280.983L275.464 261.209C272.657 259.622 272.413 257.059 274.854 255.594C274.976 255.472 275.098 255.472 275.22 255.472L262.526 248.148C262.404 248.27 262.281 248.27 262.159 248.392C259.596 249.857 255.324 249.735 252.394 248.148L218.339 267.922C221.147 269.509 221.391 272.072 218.827 273.537L231.4 280.861C234.329 279.152 238.601 279.274 241.409 280.983Z" fill="#045137"/>
<path d="M259.352 257.43C253.615 254.134 243.606 254.623 236.892 258.529C230.179 262.435 229.447 268.294 235.183 271.589C240.92 274.885 250.929 274.397 257.643 270.491C264.234 266.463 265.089 260.726 259.352 257.43ZM248.244 261.092L245.437 261.946L242.629 263.655V264.266L242.995 264.51L243.606 264.632L242.873 264.51L242.507 264.266V263.655L245.315 262.068L248.244 261.092ZM248 270.369L251.174 269.514L252.15 268.904L251.174 269.392L248 270.369Z" fill="white"/>
<path d="M256.421 259.01C252.027 256.447 244.459 256.813 239.333 259.864C234.206 262.794 233.718 267.188 237.99 269.751C242.384 272.315 249.952 271.948 255.079 268.897C260.205 265.967 260.816 261.573 256.421 259.01Z" fill="#97D6C3"/>
<path d="M275.46 261.2L241.527 280.974C238.719 279.387 234.325 279.143 231.762 280.73L219.189 273.406C221.753 271.942 221.509 269.378 218.701 267.792L252.756 248.018C255.564 249.604 259.958 249.726 262.521 248.262C262.643 248.14 262.766 248.14 262.888 248.018L275.582 255.341C275.46 255.341 275.338 255.463 275.216 255.463C272.408 257.05 272.652 259.613 275.46 261.2ZM235.057 271.453C240.794 274.749 250.803 274.261 257.517 270.355C264.23 266.449 264.963 260.59 259.226 257.294C253.489 253.999 243.48 254.487 236.766 258.393C230.175 262.299 229.443 268.158 235.057 271.453Z" fill="white"/>
<path d="M285.348 258.398L285.226 261.206L237.012 289.28V286.473L285.348 258.398Z" fill="#23322D"/>
</svg>
