<svg width="275" height="270" viewBox="0 0 275 270" fill="none" xmlns="http://www.w3.org/2000/svg">
<path d="M-26.035 298.873L318.2 84.1777H433.375L592.388 183.463C596.149 185.875 594.622 192.097 590.273 192.097L490.611 192.35L164.593 395.619C150.96 404.125 134.036 404.125 120.403 395.619L-26.035 304.205C-27.9154 303.063 -27.9154 300.142 -26.035 298.873Z" fill="#23322D"/>
<path d="M-27.3292 302.686L-49.3066 253.805L-43.4303 249.742L4.16784 284.53L-27.3292 302.686Z" fill="#23322D"/>
<path d="M-49.3066 253.799L337.943 12.3145H453.001L626 120.233L510.354 120.487L123.575 361.718L-49.3066 253.799Z" fill="#D05F0D"/>
<path d="M-49.3066 241.484L337.943 0H453.001L626 107.919L510.354 108.173L123.575 349.403L-49.3066 241.484Z" fill="#F8F0E5"/>
<path d="M298.454 48.5017L433.022 131.917L123.81 325.409L-10.7578 241.486L298.454 48.5017Z" fill="#ECBF9E"/>
<path d="M-48.0138 115.655L167.294 249.982C169.998 251.633 173.288 251.633 175.874 249.982L310.912 165.806C312.557 164.79 312.557 162.124 310.912 161.108L95.6034 26.7809C92.9003 25.1303 89.6096 25.1303 87.024 26.7809L-48.0138 111.085C-49.7767 112.1 -49.7767 114.639 -48.0138 115.655Z" fill="#D05F0D"/>
<path d="M-48.0138 105.376L167.294 239.703C169.998 241.354 173.288 241.354 175.874 239.703L310.912 155.526C312.557 154.511 312.557 151.844 310.912 150.829L95.6034 16.5016C92.9003 14.851 89.6096 14.851 87.024 16.5016L-48.0138 100.678C-49.7767 101.694 -49.7767 104.36 -48.0138 105.376Z" fill="#F8F0E5"/>
<path d="M249.212 149.556C254.5 146.001 254.265 140.542 248.742 137.368C243.218 134.194 234.521 134.575 229.232 138.129C223.943 141.684 224.178 147.144 229.702 150.318C235.226 153.492 243.923 153.111 249.212 149.556Z" stroke="#23322D" stroke-width="1.77626" stroke-miterlimit="10"/>
<path d="M263.43 157.679C268.719 154.124 268.484 148.665 262.96 145.491C257.437 142.317 248.74 142.698 243.451 146.253C238.162 149.808 238.397 155.267 243.921 158.441C249.445 161.615 258.142 161.234 263.43 157.679Z" stroke="#23322D" stroke-width="1.77626" stroke-miterlimit="10"/>
<path d="M58.5827 72.7456L42.2466 62.5885C40.6012 61.5728 38.0156 61.4458 36.4878 62.3346L25.6754 69.0636C24.1475 69.9524 24.265 71.6029 26.0279 72.7456L42.3641 82.9026C44.0095 83.9183 46.5951 84.0453 48.1229 83.1566L58.8178 76.4275C60.3456 75.4118 60.2281 73.7613 58.5827 72.7456Z" fill="#EEDABE"/>
<path d="M-11.1103 77.6992L212.542 216.851L191.975 229.801L-31.7949 90.5225L-11.1103 77.6992Z" fill="#23322D"/>
<path d="M21.3281 239.838L63.7551 213.303L168.471 278.435L126.397 305.224L21.3281 239.838Z" fill="#23322D"/>
<path d="M74.566 237.17L68.9247 240.471L76.2114 241.487L75.5062 243.899L67.867 242.376L70.3351 247.073L66.5742 247.581L64.9288 243.01L59.6402 246.565L56.8195 244.788L62.4608 241.487L55.0566 240.471L55.8793 238.186L63.5185 239.709L61.0505 234.885L64.8113 234.377L66.4567 238.948L71.6279 235.393L74.566 237.17Z" fill="#EEDABE"/>
<path d="M113.584 261.539L107.825 264.84L115.229 265.856L114.524 268.141L106.885 266.618L109.235 271.442L105.592 271.95L103.946 267.253L98.6577 270.935L95.7196 269.03L101.478 265.856L94.0742 264.84L94.7794 262.428L102.536 263.952L100.068 259.127L103.829 258.746L105.474 263.317L110.645 259.762L113.584 261.539Z" fill="#EEDABE"/>
<path d="M94.0777 249.356L88.3189 252.657L95.7231 253.672L95.0179 255.958L87.3787 254.561L89.7293 259.259L86.0859 259.767L84.4406 255.069L79.1519 258.751L76.3313 256.974L81.9725 253.672L74.5684 252.657L75.2735 250.371L83.0303 251.768L80.5622 247.07L84.323 246.562L85.9684 251.133L91.1396 247.578L94.0777 249.356Z" fill="#EEDABE"/>
<path d="M217.127 330.102L217.01 333.784L391.066 225.231V221.549L217.127 330.102Z" fill="white"/>
</svg>
