<svg width="275" height="272" viewBox="0 0 275 272" fill="none" xmlns="http://www.w3.org/2000/svg">
<path d="M108.811 103.641H99.0358C97.4827 102.242 95.7468 100.942 93.7369 99.6433C73.5463 86.8512 40.3825 86.9511 20.1005 99.8432C18.1819 101.042 16.5374 102.342 14.9843 103.641H4.75195V124.728H4.84331C5.39147 132.623 10.3249 140.318 19.8264 146.315C40.017 159.107 73.1808 159.007 93.4628 146.115C102.873 140.118 107.898 132.523 108.629 124.628H108.811V103.641Z" fill="#23322D"/>
<path d="M57.0068 137.018C85.7673 136.834 109.004 121.965 108.907 103.806C108.81 85.6466 85.4159 71.0749 56.6555 71.2587C27.895 71.4426 4.65873 86.3124 4.75576 104.471C4.85278 122.63 28.2464 137.202 57.0068 137.018Z" fill="#F8F0E5"/>
<path d="M56.9737 130.823C80.3352 130.674 99.2097 118.606 99.1309 103.869C99.0522 89.1323 80.0501 77.3068 56.6885 77.4561C33.327 77.6055 14.4525 89.6732 14.5312 104.41C14.61 119.147 33.6121 130.973 56.9737 130.823Z" fill="#88C8B0"/>
<path d="M108.815 80.1467H99.0397C97.4866 78.7475 95.7507 77.4483 93.7408 76.1491C73.5502 63.357 40.3864 63.457 20.1044 76.349C18.1858 77.5483 16.5413 78.8475 14.9882 80.1467H4.75586V101.234H4.84722C5.39538 109.129 10.3288 116.824 19.8303 122.82C40.0209 135.613 73.1847 135.513 93.4667 122.621C102.877 116.624 107.902 109.029 108.633 101.134H108.815V80.1467Z" fill="#23322D"/>
<path d="M57.0068 113.524C85.7673 113.34 109.004 98.4704 108.907 80.3114C108.81 62.1524 85.4159 47.5807 56.6555 47.7646C27.895 47.9485 4.65873 62.8183 4.75576 80.9773C4.85278 99.1363 28.2464 113.708 57.0068 113.524Z" fill="#F8F0E5"/>
<path d="M56.9737 107.329C80.3352 107.18 99.2097 95.112 99.1309 80.3751C99.0522 65.6382 80.0501 53.8126 56.6885 53.962C33.327 54.1113 14.4525 66.1791 14.5312 80.916C14.61 95.6529 33.6121 107.478 56.9737 107.329Z" fill="#88C8B0"/>
<path d="M108.815 56.76H99.0397C97.4866 55.3608 95.7507 54.0616 93.7408 52.7624C73.5502 39.9703 40.3864 40.0702 20.1044 52.9623C18.1858 54.1616 16.5413 55.4608 14.9882 56.76H4.75586V77.847H4.84722C5.39538 85.7421 10.3288 93.4374 19.8303 99.4337C40.0209 112.226 73.1847 112.126 93.4667 99.2338C102.877 93.2375 107.902 85.6422 108.633 77.747H108.815V56.76Z" fill="#23322D"/>
<path d="M57.0068 90.1374C85.7673 89.9535 109.004 75.0837 108.907 56.9247C108.81 38.7657 85.4159 24.194 56.6555 24.3779C27.895 24.5618 4.65873 39.4316 4.75576 57.5906C4.85278 75.7495 28.2464 90.3212 57.0068 90.1374Z" fill="#F8F0E5"/>
<path d="M56.9737 83.9424C80.3352 83.793 99.2097 71.7253 99.1309 56.9884C99.0522 42.2515 80.0501 30.4259 56.6885 30.5753C33.327 30.7246 14.4525 42.7923 14.5312 57.5293C14.61 72.2662 33.6121 84.0918 56.9737 83.9424Z" fill="#88C8B0"/>
<path d="M108.811 33.3772H99.0358C97.4827 31.978 95.7468 30.6788 93.7369 29.3796C73.5463 16.5875 40.3825 16.6874 20.1005 29.5795C18.1819 30.7788 16.5374 32.078 14.9843 33.3772H4.75195V54.4642H4.84331C5.39147 62.3593 10.3249 70.0546 19.8264 76.0509C40.017 88.843 73.1808 88.7431 93.4628 75.851C102.873 69.8547 107.898 62.2594 108.629 54.3642H108.811V33.3772Z" fill="#23322D"/>
<path d="M57.0068 66.7545C85.7673 66.5707 109.004 51.7008 108.907 33.5419C108.81 15.3829 85.4159 0.811181 56.6555 0.99506C27.895 1.17894 4.65873 16.0488 4.75576 34.2077C4.85278 52.3667 28.2464 66.9384 57.0068 66.7545Z" fill="#F8F0E5"/>
<path d="M56.9737 60.5596C80.3352 60.4102 99.2097 48.3425 99.1309 33.6056C99.0522 18.8686 80.0501 7.04309 56.6885 7.19245C33.327 7.34181 14.4525 19.4095 14.5312 34.1465C14.61 48.8834 33.6121 60.7089 56.9737 60.5596Z" fill="#D05F0D"/>
<path d="M168.287 87.4434L14.5273 184.583L169.474 282.523L323.691 185.183L168.287 87.4434Z" fill="#F1F9F6"/>
<path d="M169.657 298.514L14.5273 200.574V184.584L169.474 282.524L169.657 298.514Z" fill="#88C8B0"/>
<path d="M169.657 298.516L323.782 201.176L323.691 185.186L169.475 282.526L169.657 298.516Z" fill="#23322D"/>
<path d="M295.824 248.937C306.331 255.633 304.869 267.326 292.627 275.121C280.384 282.916 261.838 283.915 251.332 277.22C240.825 270.624 242.287 258.831 254.529 251.036C266.772 243.24 285.318 242.241 295.824 248.937ZM282.668 272.123L284.77 273.422L288.972 270.724L286.871 269.324L288.972 268.025V263.128L284.861 260.53L281.207 259.83L267.32 263.328L266.041 263.028L265.31 262.529V261.229L270.517 257.931L275.634 256.332L272.802 252.735L266.954 254.534L265.219 255.633L263.117 254.234L258.915 256.932L261.016 258.331L258.915 259.63V264.527L263.026 267.126L266.68 267.825L280.567 264.328L281.755 264.627L282.486 265.127V266.426L277.187 269.724L272.071 271.323L274.903 274.921L280.75 273.122L282.668 272.123Z" fill="#278704"/>
<path d="M292.442 218.654L343.696 251.034L254.802 307.5L203.549 275.12L292.442 218.654ZM263.024 296.406L325.606 256.631C320.307 253.333 319.942 248.236 324.601 245.238C324.784 245.138 325.058 245.038 325.332 244.838L302.035 230.147C301.853 230.347 301.67 230.447 301.487 230.547C296.828 233.545 288.788 233.245 283.58 229.947L220.999 269.823C226.206 273.121 226.663 278.218 222.004 281.116L245.118 295.707C249.777 292.809 257.817 293.108 263.024 296.406Z" fill="white"/>
<path d="M272.709 252.832L275.541 256.43L270.425 258.029L265.217 261.327V262.626L265.948 263.126L267.136 263.426L281.114 259.928L284.769 260.627L288.88 263.226V268.123L286.87 269.422L288.971 270.821L284.769 273.419L282.667 272.12L280.931 273.219L274.993 275.018L272.161 271.521L277.368 269.822L282.576 266.524V265.224L281.845 264.725L280.566 264.425L266.679 267.923L263.025 267.223L258.914 264.625L258.822 259.728L260.924 258.429L258.822 257.029L263.025 254.431L265.126 255.73L266.862 254.631L272.709 252.832Z" fill="#8ECC37"/>
<path d="M325.518 256.628L263.028 296.404C257.82 293.106 249.78 292.806 245.121 295.804L222.007 281.213C226.666 278.215 226.209 273.218 221.002 269.92L283.584 230.145C288.791 233.442 296.831 233.742 301.49 230.744C301.673 230.644 301.856 230.444 302.039 230.344L325.335 245.035C325.061 245.135 324.879 245.235 324.605 245.435C319.854 248.233 320.311 253.33 325.518 256.628ZM251.334 277.216C261.84 283.911 280.386 282.912 292.628 275.117C304.962 267.322 306.333 255.629 295.826 248.933C285.32 242.337 266.773 243.236 254.531 251.032C242.289 258.827 240.827 270.52 251.334 277.216Z" fill="#8ECC37"/>
<path d="M343.607 250.928V256.524L254.713 312.989V307.393L343.607 250.928Z" fill="#23322D"/>
<path d="M295.824 239.835C306.331 246.531 304.96 258.224 292.627 266.019C280.384 273.814 261.838 274.814 251.332 268.118C240.825 261.522 242.287 249.729 254.529 241.934C266.863 234.139 285.318 233.14 295.824 239.835ZM282.668 263.021L284.77 264.32L288.972 261.622L286.871 260.323L288.972 259.024V254.127L284.861 251.528L281.207 250.829L267.32 254.327L266.132 254.027L265.401 253.527V252.228L270.609 248.93L275.725 247.331L272.893 243.733L267.046 245.532L265.31 246.631L263.209 245.232L259.006 247.93L261.107 249.33L259.006 250.629V255.526L263.117 258.124L266.772 258.824L280.658 255.326L281.846 255.626L282.577 256.125V257.425L277.278 260.723L272.162 262.322L274.994 265.919L280.841 264.12L282.668 263.021Z" fill="#278704"/>
<path d="M292.442 209.557L343.696 241.937L254.802 298.402L203.549 266.022L292.442 209.557ZM263.024 287.309L325.606 247.533C320.307 244.235 319.942 239.138 324.601 236.14C324.784 236.04 325.058 235.94 325.332 235.741L302.035 221.05C301.853 221.249 301.67 221.349 301.487 221.449C296.828 224.447 288.788 224.148 283.58 220.85L220.999 260.725C226.206 264.023 226.663 269.12 222.004 272.018L245.118 286.609C249.777 283.711 257.817 284.011 263.024 287.309Z" fill="white"/>
<path d="M272.707 243.736L275.539 247.334L270.423 248.933L265.216 252.231V253.53L265.946 254.03L267.134 254.33L281.112 250.832L284.767 251.532L288.878 254.13V259.027L286.868 260.326L288.969 261.725L284.767 264.424L282.665 263.024L280.93 264.124L274.991 265.923L272.25 262.425L277.366 260.726L282.574 257.428V256.129L281.843 255.629L280.564 255.329L266.677 258.827L263.023 258.127L258.912 255.529V250.632L260.922 249.333L258.82 247.934L263.023 245.335L265.124 246.635L266.86 245.535L272.707 243.736Z" fill="#8ECC37"/>
<path d="M325.518 247.533L263.028 287.308C257.82 284.01 249.78 283.71 245.121 286.708L222.007 272.117C226.666 269.119 226.209 264.122 221.002 260.824L283.584 221.049C288.791 224.347 296.831 224.647 301.49 221.648C301.673 221.549 301.856 221.349 302.039 221.249L325.335 235.94C325.061 236.04 324.879 236.14 324.605 236.339C319.854 239.138 320.311 244.235 325.518 247.533ZM251.334 268.12C261.84 274.816 280.386 273.816 292.628 266.021C304.962 258.226 306.333 246.533 295.826 239.837C285.32 233.241 266.773 234.141 254.531 241.936C242.289 249.731 240.827 261.424 251.334 268.12Z" fill="#8ECC37"/>
<path d="M254.711 298.394V303.89L203.549 271.61V266.014L254.711 298.394Z" fill="#045137"/>
<path d="M343.607 241.838V247.434L254.713 303.9V298.403L343.607 241.838Z" fill="#23322D"/>
<path d="M295.824 230.746C306.331 237.441 304.96 249.134 292.627 256.929C280.384 264.725 261.838 265.724 251.332 259.028C240.825 252.432 242.287 240.639 254.529 232.844C266.863 225.049 285.318 224.05 295.824 230.746ZM282.668 253.931L284.77 255.231L288.972 252.532L286.871 251.233L288.972 249.934V245.037L284.861 242.438L281.207 241.739L267.32 245.237L266.132 244.937L265.401 244.437V243.138L270.609 239.84L275.725 238.241L272.893 234.643L267.046 236.442L265.31 237.541L263.209 236.142L259.006 238.841L261.107 240.24L259.006 241.539V246.436L263.117 249.034L266.772 249.734L280.658 246.236L281.846 246.536L282.577 247.036V248.335L277.278 251.633L272.162 253.232L274.994 256.83L280.841 255.031L282.668 253.931Z" fill="#278704"/>
<path d="M292.442 200.455L343.696 232.835L254.802 289.3L203.549 256.92L292.442 200.455ZM263.024 278.207L325.606 238.432C320.307 235.134 319.942 230.037 324.601 227.039C324.784 226.939 325.058 226.839 325.332 226.639L302.035 211.948C301.853 212.148 301.67 212.248 301.487 212.348C296.828 215.346 288.788 215.046 283.58 211.748L220.999 251.624C226.206 254.922 226.663 260.018 222.004 262.917L245.118 277.508C249.777 274.609 257.817 274.909 263.024 278.207Z" fill="white"/>
<path d="M272.707 234.645L275.539 238.242L270.423 239.841L265.216 243.139V244.439L265.946 244.938L267.134 245.238L281.112 241.74L284.767 242.44L288.878 245.038V249.935L286.868 251.234L288.969 252.633L284.767 255.332L282.665 253.933L280.93 255.032L274.991 256.831L272.25 253.333L277.366 251.734L282.574 248.336V247.037L281.843 246.537L280.564 246.337L266.677 249.735L263.023 249.036L258.912 246.437V241.54L260.922 240.241L258.82 238.942L263.023 236.244L265.124 237.543L266.86 236.443L272.707 234.645Z" fill="#8ECC37"/>
<path d="M325.518 238.439L263.028 278.214C257.82 274.916 249.78 274.616 245.121 277.615L222.007 263.024C226.666 260.025 226.209 255.029 221.002 251.731L283.584 211.955C288.791 215.253 296.831 215.553 301.49 212.555C301.673 212.455 301.856 212.255 302.039 212.155L325.335 226.846C325.061 226.946 324.879 227.046 324.605 227.246C319.854 230.044 320.311 235.141 325.518 238.439ZM251.334 259.026C261.84 265.722 280.386 264.723 292.628 256.927C304.962 249.132 306.333 237.439 295.826 230.743C285.32 224.148 266.773 225.047 254.531 232.842C242.289 240.637 240.827 252.33 251.334 259.026Z" fill="#8ECC37"/>
<path d="M254.711 289.3V294.796L203.549 262.516V256.92L254.711 289.3Z" fill="#045137"/>
<path d="M343.607 232.744V238.341L254.713 294.806V289.309L343.607 232.744Z" fill="#23322D"/>
<path d="M295.824 221.642C306.331 228.338 304.869 240.031 292.627 247.826C280.384 255.621 261.838 256.621 251.332 249.925C240.825 243.329 242.287 231.536 254.529 223.741C266.772 215.946 285.318 214.946 295.824 221.642ZM282.668 244.828L284.77 246.127L288.972 243.429L286.871 242.129L288.972 240.83V235.933L284.861 233.335L281.207 232.635L267.32 236.133L266.041 235.833L265.31 235.334V234.034L270.517 230.736L275.634 229.137L272.802 225.54L266.954 227.339L265.219 228.438L263.117 227.039L258.915 229.737L261.016 231.136L258.915 232.435V237.332L263.026 239.931L266.68 240.63L280.567 237.133L281.755 237.432L282.486 237.932V239.231L277.187 242.529L272.071 244.128L274.903 247.726L280.75 245.927L282.668 244.828Z" fill="#278704"/>
<path d="M292.442 191.361L343.696 223.741L254.802 280.207L203.549 247.827L292.442 191.361ZM263.024 269.113L325.606 229.338C320.307 226.04 319.942 220.943 324.601 217.945C324.784 217.845 325.058 217.745 325.332 217.545L302.035 202.854C301.853 203.054 301.67 203.154 301.487 203.254C296.828 206.252 288.788 205.952 283.58 202.654L220.999 242.53C226.206 245.828 226.663 250.925 222.004 253.823L245.118 268.414C249.777 265.516 257.817 265.815 263.024 269.113Z" fill="white"/>
<path d="M272.707 225.547L275.539 229.145L270.423 230.744L265.216 234.042V235.341L265.946 235.841L267.134 236.14L281.112 232.643L284.767 233.342L288.878 235.94V240.837L286.868 242.137L288.969 243.536L284.767 246.234L282.665 244.835L280.93 245.934L274.991 247.833L272.159 244.235L277.366 242.636L282.574 239.238V237.939L281.843 237.44L280.564 237.24L266.677 240.638L263.023 239.938L258.912 237.34L258.82 232.443L260.922 231.143L258.82 229.844L263.023 227.146L265.124 228.445L266.86 227.346L272.707 225.547Z" fill="#8ECC37"/>
<path d="M325.518 229.343L263.028 269.119C257.82 265.821 249.78 265.521 245.121 268.519L222.007 253.928C226.666 250.93 226.209 245.933 221.002 242.635L283.584 202.859C288.791 206.157 296.831 206.457 301.49 203.459C301.673 203.359 301.856 203.159 302.039 203.059L325.335 217.75C325.061 217.85 324.879 217.95 324.605 218.15C319.854 220.948 320.311 226.045 325.518 229.343ZM251.334 249.931C261.84 256.626 280.386 255.627 292.628 247.832C304.962 240.037 306.333 228.344 295.826 221.648C285.32 215.052 266.773 215.951 254.531 223.747C242.289 231.542 240.827 243.235 251.334 249.931Z" fill="#8ECC37"/>
<path d="M254.711 280.214V285.711L203.549 253.431V247.834L254.711 280.214Z" fill="#045137"/>
<path d="M343.607 223.645V229.241L254.713 285.706V280.21L343.607 223.645Z" fill="#23322D"/>
<path d="M295.824 212.548C306.331 219.244 304.96 230.937 292.627 238.732C280.384 246.527 261.838 247.527 251.332 240.831C240.825 234.235 242.287 222.442 254.529 214.647C266.863 206.852 285.318 205.852 295.824 212.548ZM282.668 235.734L284.77 237.033L288.972 234.335L286.871 233.036L288.972 231.737V226.84L284.861 224.241L281.207 223.542L267.32 227.039L266.132 226.74L265.401 226.24V224.941L270.609 221.643L275.725 220.044L272.893 216.446L267.046 218.245L265.31 219.344L263.209 217.945L259.006 220.643L261.107 222.042L259.006 223.342V228.239L263.117 230.837L266.772 231.537L280.658 228.039L281.846 228.339L282.577 228.838V230.137L277.278 233.435L272.162 235.034L274.994 238.632L280.841 236.833L282.668 235.734Z" fill="#278704"/>
<path d="M292.442 182.271L343.696 214.652L254.802 271.117L203.549 238.737L292.442 182.271ZM263.024 260.024L325.606 220.248C320.307 216.95 319.942 211.853 324.601 208.855C324.784 208.755 325.058 208.655 325.332 208.455L302.035 193.764C301.853 193.964 301.67 194.064 301.487 194.164C296.828 197.162 288.788 196.862 283.58 193.565L220.999 233.44C226.206 236.738 226.663 241.835 222.004 244.733L245.118 259.324C249.777 256.426 257.817 256.726 263.024 260.024Z" fill="white"/>
<path d="M272.709 216.445L275.541 220.043L270.425 221.642L265.217 224.94V226.239L265.948 226.739L267.136 227.039L281.114 223.541L284.769 224.24L288.88 226.839V231.736L286.87 233.035L288.971 234.434L284.769 237.133L282.667 235.733L280.931 236.833L274.993 238.732L272.252 235.134L277.368 233.535L282.576 230.137V228.838L281.845 228.338L280.566 228.138L266.679 231.536L263.025 230.836L258.914 228.238V223.341L260.924 222.042L258.822 220.743L263.025 218.044L265.126 219.344L266.862 218.344L272.709 216.445Z" fill="#8ECC37"/>
<path d="M325.518 220.255L263.028 260.031C257.82 256.733 249.78 256.433 245.121 259.431L222.007 244.84C226.666 241.842 226.209 236.845 221.002 233.547L283.584 193.771C288.791 197.069 296.831 197.369 301.49 194.371C301.673 194.271 301.856 194.071 302.039 193.971L325.335 208.662C325.061 208.762 324.879 208.862 324.605 209.062C319.854 211.86 320.311 216.957 325.518 220.255ZM251.334 240.842C261.84 247.538 280.386 246.539 292.628 238.744C304.962 230.949 306.333 219.256 295.826 212.56C285.32 205.964 266.773 206.863 254.531 214.659C242.289 222.454 240.827 234.147 251.334 240.842Z" fill="#8ECC37"/>
<path d="M254.711 271.116V276.613L203.549 244.333V238.736L254.711 271.116Z" fill="#045137"/>
<path d="M343.607 214.553V220.149L254.713 276.615V271.118L343.607 214.553Z" fill="#23322D"/>
<path d="M295.824 203.468C306.331 210.164 304.96 221.857 292.627 229.652C280.384 237.447 261.838 238.447 251.332 231.751C240.825 225.155 242.287 213.362 254.529 205.567C266.863 197.772 285.318 196.772 295.824 203.468ZM282.668 226.654L284.77 228.053L288.972 225.355L286.871 224.056L288.972 222.756V217.859L284.861 215.261L281.207 214.561L267.32 218.059L266.132 217.759L265.401 217.26V215.961L270.609 212.663L275.725 211.064L272.893 207.466L267.046 209.265L265.31 210.364L263.209 208.965L259.006 211.663L261.107 213.062L259.006 214.362V219.259L263.117 221.857L266.772 222.556L280.658 219.059L281.846 219.358L282.577 219.858V221.157L277.278 224.455L272.162 226.054L274.994 229.652L280.841 227.853L282.668 226.654Z" fill="#278704"/>
<path d="M292.442 173.186L343.696 205.566L254.802 262.031L203.549 229.651L292.442 173.186ZM263.024 250.938L325.606 211.162C320.307 207.864 319.942 202.767 324.601 199.769C324.784 199.669 325.058 199.569 325.332 199.369L302.035 184.778C301.853 184.978 301.67 185.078 301.487 185.178C296.828 188.176 288.788 187.876 283.58 184.579L220.999 224.354C226.206 227.652 226.663 232.749 222.004 235.647L245.118 250.238C249.777 247.34 257.817 247.64 263.024 250.938Z" fill="white"/>
<path d="M272.709 207.363L275.541 210.961L270.425 212.56L265.217 215.858V217.257L265.948 217.657L267.136 217.957L281.114 214.459L284.769 215.158L288.88 217.757V222.654L286.87 223.953L288.971 225.352L284.769 228.051L282.667 226.651L280.931 227.751L274.993 229.65L272.252 226.052L277.368 224.453L282.576 221.055V219.756L281.845 219.256L280.566 219.056L266.679 222.554L263.025 221.754L258.914 219.156V214.259L260.924 212.96L258.822 211.661L263.025 208.962L265.126 210.261L266.862 209.262L272.709 207.363Z" fill="#8ECC37"/>
<path d="M325.518 211.158L263.028 250.933C257.82 247.635 249.78 247.335 245.121 250.334L222.007 235.742C226.666 232.744 226.209 227.747 221.002 224.449L283.584 184.674C288.791 187.972 296.831 188.272 301.49 185.274C301.673 185.174 301.856 184.974 302.039 184.874L325.335 199.565C325.061 199.665 324.879 199.765 324.605 199.965C319.854 202.763 320.311 207.86 325.518 211.158ZM251.334 231.745C261.84 238.441 280.386 237.441 292.628 229.646C304.962 221.851 306.333 210.158 295.826 203.462C285.32 196.866 266.773 197.766 254.531 205.561C242.289 213.356 240.827 225.049 251.334 231.745Z" fill="#8ECC37"/>
<path d="M254.711 262.027V267.523L203.549 235.243V229.646L254.711 262.027Z" fill="#045137"/>
<path d="M343.607 205.467V211.063L254.713 267.529V262.032L343.607 205.467Z" fill="#23322D"/>
<path d="M295.824 194.371C306.331 201.066 304.869 212.759 292.627 220.554C280.384 228.35 261.838 229.349 251.332 222.653C240.825 216.057 242.287 204.264 254.529 196.469C266.772 188.674 285.318 187.675 295.824 194.371ZM282.668 217.556L284.77 218.955L288.972 216.257L286.871 214.958L288.972 213.659V208.762L284.861 206.163L281.207 205.464L267.32 208.962L266.041 208.662L265.31 208.162V206.863L270.517 203.565L275.634 201.966L272.802 198.368L266.954 200.167L265.219 201.266L263.117 199.867L258.915 202.566L261.016 203.965L258.915 205.264V210.161L263.026 212.759L266.68 213.459L280.567 209.961L281.755 210.261L282.486 210.76V212.06L277.187 215.358L272.071 216.957L274.903 220.554L280.75 218.756L282.668 217.556Z" fill="#278704"/>
<path d="M292.442 164.084L343.696 196.464L254.802 252.929L203.549 220.549L292.442 164.084ZM263.024 241.836L325.606 202.061C320.307 198.763 319.942 193.666 324.601 190.668C324.784 190.568 325.058 190.468 325.332 190.268L302.035 175.577C301.853 175.777 301.67 175.877 301.487 175.977C296.828 178.975 288.788 178.675 283.58 175.377L220.999 215.352C226.206 218.65 226.663 223.747 222.004 226.645L245.118 241.236C249.777 238.338 257.817 238.538 263.024 241.836Z" fill="white"/>
<path d="M272.709 198.27L275.541 201.867L270.425 203.466L265.217 206.764V208.163L265.948 208.563L267.136 208.863L281.114 205.365L284.769 206.065L288.88 208.663V213.56L286.87 214.959L288.971 216.258L284.769 218.957L282.667 217.558L280.931 218.657L274.993 220.556L272.161 216.958L277.368 215.359L282.576 211.961V210.662L281.845 210.162L280.566 209.962L266.679 213.46L263.025 212.661L258.914 210.062L258.822 205.165L260.924 203.866L258.822 202.567L263.025 199.869L265.126 201.168L266.862 200.168L272.709 198.27Z" fill="#8ECC37"/>
<path d="M325.518 202.064L263.028 241.839C257.82 238.541 249.78 238.241 245.121 241.24L222.007 226.649C226.666 223.65 226.209 218.654 221.002 215.356L283.584 175.58C288.791 178.878 296.831 179.178 301.49 176.18C301.673 176.08 301.856 175.88 302.039 175.78L325.335 190.471C325.061 190.571 324.879 190.671 324.605 190.871C319.854 193.769 320.311 198.766 325.518 202.064ZM251.334 222.651C261.84 229.347 280.386 228.348 292.628 220.552C304.962 212.757 306.333 201.064 295.826 194.369C285.32 187.773 266.773 188.672 254.531 196.467C242.289 204.262 240.827 215.955 251.334 222.651Z" fill="#8ECC37"/>
<path d="M254.711 252.929V258.426L203.549 226.145V220.549L254.711 252.929Z" fill="#045137"/>
<path d="M343.607 196.463V201.96L254.713 258.425V252.928L343.607 196.463Z" fill="#23322D"/>
<path d="M292.442 154.986L343.696 187.366L254.802 243.832L203.549 211.452L292.442 154.986ZM263.024 232.738L325.606 192.963C320.307 189.665 319.942 184.568 324.601 181.57C324.784 181.47 325.058 181.37 325.332 181.17L302.035 166.479C301.853 166.679 301.67 166.779 301.487 166.879C296.828 169.877 288.788 169.577 283.58 166.279L220.999 206.255C226.206 209.553 226.663 214.65 222.004 217.548L245.118 232.139C249.777 229.241 257.817 229.44 263.024 232.738Z" fill="#045137"/>
<path d="M295.824 185.269C285.318 178.673 266.772 179.573 254.529 187.368C242.287 195.163 240.825 206.856 251.332 213.552C261.838 220.248 280.384 219.248 292.627 211.453C304.96 203.658 306.422 191.965 295.824 185.269ZM275.542 192.764L270.426 194.363L265.219 197.661V198.961L265.949 199.46L267.137 199.76L265.858 199.46L265.127 198.961V197.661L270.335 194.363L275.542 192.764Z" fill="white"/>
<path d="M290.524 188.667C282.484 183.57 268.506 184.369 259.096 190.266C249.777 196.162 248.681 205.156 256.629 210.153C264.669 215.25 278.647 214.451 288.057 208.554C297.376 202.658 298.472 193.763 290.524 188.667Z" fill="#97D6C3"/>
<path d="M325.518 192.966L263.028 232.742C257.82 229.444 249.78 229.144 245.121 232.142L222.007 217.551C226.666 214.553 226.209 209.556 221.002 206.258L283.584 166.483C288.791 169.781 296.831 170.08 301.49 167.082C301.673 166.982 301.856 166.782 302.039 166.682L325.335 181.373C325.061 181.473 324.879 181.573 324.605 181.773C319.854 184.671 320.311 189.668 325.518 192.966ZM251.334 213.554C261.84 220.249 280.386 219.25 292.628 211.455C304.962 203.66 306.333 191.967 295.826 185.271C285.32 178.675 266.773 179.574 254.531 187.37C242.289 195.165 240.827 206.958 251.334 213.554Z" fill="white"/>
<path d="M254.711 243.831V249.328L203.549 217.048V211.451L254.711 243.831Z" fill="#045137"/>
<path d="M343.607 187.365V192.862L254.713 249.327V243.83L343.607 187.365Z" fill="#23322D"/>
<path opacity="0.5" d="M136.407 150.898L-26.5801 254.135L32.4387 291.412C42.397 297.708 54.6393 297.708 64.5062 291.412L211.505 198.369L136.407 150.898Z" fill="url(#paint0_linear_2305_3391)"/>
<path d="M-41.4735 240.843C-49.1478 236.146 -53.9899 225.852 -53.9899 211.161C-54.0813 182.079 -35.4438 146.501 -12.4209 131.81L4.20664 121.217L5.02888 121.716L81.132 168.588L61.855 182.279L54.6375 188.076L44.6793 199.469L43.0348 201.068L32.437 218.657L28.5085 229.65L25.585 238.445L23.2096 256.833L23.0269 258.432L23.8491 266.128L26.4072 275.722L29.8789 282.218L34.9037 288.714L-41.4735 240.843Z" fill="#D05F0D"/>
<path d="M135.4 140.703V143.801L41.2988 203.365C42.1211 201.266 43.7656 199.467 45.41 197.668L135.4 140.703Z" fill="#D4ECFF"/>
<path d="M211.502 188.574L135.399 140.703L45.6828 198.468L39.9271 205.863L31.2479 222.453L25.8576 239.142L24.0304 252.134L23.8477 265.126L31.2479 283.715L40.932 289.911L50.8903 290.511L62.7672 285.114L200.63 196.869L211.502 188.574Z" fill="#FCF8F2"/>
<path d="M-41.3823 240.847C-47.8689 236.949 -52.2542 229.054 -53.5332 218.061L24.1231 266.731L26.4071 275.725L29.8788 282.221L34.9036 288.717L-41.3823 240.847Z" fill="#D05F0D"/>
<path d="M211.508 191.68V188.581L63.9606 282.124C42.3082 295.915 24.5842 284.822 24.5842 257.439C24.4929 230.056 42.0341 196.577 63.6865 182.785L81.0449 171.692V168.594L63.6865 179.687C40.6637 194.278 22.0262 229.856 22.1175 259.038C22.2089 288.12 40.9378 299.913 63.9606 285.322L211.508 191.68Z" fill="#23322D"/>
<path d="M162.168 194.972L127.908 173.186L125.807 174.485L160.067 196.371L162.168 194.972Z" fill="#D05F0D"/>
<path d="M161.254 182.576L137.318 167.285L135.125 168.584L159.061 183.875L161.254 182.576Z" fill="#D05F0D"/>
<path d="M153.307 183.374L132.659 170.182L130.467 171.581L151.206 184.773L153.307 183.374Z" fill="#D05F0D"/>
<path d="M166.919 192.071L156.504 185.475L154.402 186.774L164.726 193.37L166.919 192.071Z" fill="#D05F0D"/>
<path d="M76.9274 245.742L42.6673 223.855L40.4746 225.155L74.7347 247.041L76.9274 245.742Z" fill="#D05F0D"/>
<path d="M76.0138 233.246L52.0774 217.955L49.8848 219.354L73.8212 234.545L76.0138 233.246Z" fill="#D05F0D"/>
<path d="M68.0647 234.143L47.3259 220.851L45.2246 222.251L65.872 235.442L68.0647 234.143Z" fill="#D05F0D"/>
<path d="M81.5871 242.74L71.2634 236.145L69.1621 237.544L79.4858 244.14L81.5871 242.74Z" fill="#D05F0D"/>
<path d="M126.356 195.776H121.605C120.874 195.076 119.961 194.477 119.047 193.877C109.271 187.681 93.1006 187.681 83.2337 193.977C82.3201 194.576 81.4979 195.176 80.767 195.876H75.7422V206.169H75.8336C76.1076 209.967 78.483 213.765 83.1424 216.663C92.9179 222.859 109.089 222.859 118.956 216.563C123.524 213.665 125.99 209.967 126.356 206.169H126.447V195.776H126.356Z" fill="#D05F0D"/>
<path d="M101.138 211.973C115.114 211.883 126.406 204.652 126.359 195.821C126.312 186.99 114.944 179.903 100.967 179.992C86.9904 180.082 75.6984 187.313 75.7456 196.144C75.7928 204.976 87.1613 212.062 101.138 211.973Z" fill="#F8F0E5"/>
<path d="M89.9935 199.674C89.628 199.474 89.4453 199.075 89.4453 198.775V189.58C89.4453 188.881 90.3589 188.281 91.4552 188.281C92.5516 188.281 93.4652 188.881 93.4652 189.58V197.176L113.656 194.477C114.752 194.378 115.848 194.777 116.031 195.477C116.305 196.176 115.574 196.876 114.478 196.976L91.8207 199.974C91.1812 200.074 90.633 199.974 90.1762 199.674C90.0848 199.774 90.0848 199.674 89.9935 199.674Z" fill="#D05F0D"/>
<defs>
<linearGradient id="paint0_linear_2305_3391" x1="-26.6156" y1="223.543" x2="211.537" y2="223.543" gradientUnits="userSpaceOnUse">
<stop stop-opacity="0"/>
<stop offset="0.8942" stop-opacity="0.8942"/>
<stop offset="1"/>
</linearGradient>
</defs>
</svg>
