<svg width="275" height="268" viewBox="0 0 275 268" fill="none" xmlns="http://www.w3.org/2000/svg">
<g clip-path="url(#clip0_2125_62472)">
<path d="M361.412 8.40234L10.9899 178.44L-86.5547 116.212L361.412 8.40234Z" fill="#D5EFE7"/>
<path d="M108.96 238.797L24.9043 292.002L53.0176 203.639L108.96 238.797Z" fill="#23322D"/>
<path d="M10.9902 176.884L24.6209 292.006L53.0182 203.642L361.412 8.40234L10.9902 176.884Z" fill="#045137"/>
<path d="M205.794 14.7796L189.75 4.66754C178.249 -2.64422 162.346 -1.55524 144.882 9.4902C109.67 31.5811 80.9883 85.8748 80.9883 130.679C80.9883 153.236 88.2296 168.949 99.8725 176.416L115.917 186.528C104.274 179.217 97.0327 163.348 97.0327 140.791C97.0327 95.9868 125.572 41.8487 160.927 19.6022C178.391 8.55678 194.293 7.46779 205.794 14.7796Z" fill="#23322D"/>
<path d="M206.102 129.065C230.914 81.6663 230.736 30.4906 205.705 14.7606C180.675 -0.969408 140.269 24.7029 115.457 72.1014C90.6452 119.5 90.8228 170.676 115.854 186.405C140.885 202.135 181.29 176.463 206.102 129.065Z" fill="#F8F0E5"/>
<path d="M123.869 76.8501C112.652 98.1631 106.404 120.876 106.404 140.789C106.404 158.68 111.374 171.592 120.461 177.504C129.406 183.26 142.043 181.548 156.099 172.836C171.718 163.036 186.485 145.923 197.701 124.61C208.918 103.297 215.166 80.5838 215.166 60.6709C215.166 42.7804 210.196 29.7126 201.109 23.9565C192.164 18.2004 179.527 19.9117 165.471 28.6236C149.994 38.2689 135.086 55.3815 123.869 76.8501Z" fill="#23322D"/>
<path d="M120.035 74.3638C108.818 95.6768 102.57 118.39 102.57 138.303C102.57 156.193 107.54 169.106 116.627 175.017C125.572 180.773 138.209 179.062 152.266 170.35C167.884 160.549 182.651 143.437 193.867 122.124C205.084 100.811 211.332 78.0975 211.332 58.1846C211.332 40.2941 206.362 27.2262 197.275 21.4702C188.33 15.7141 175.693 17.4254 161.637 26.1373C146.16 35.9381 131.252 53.0508 120.035 74.3638Z" fill="#D05F0D"/>
<path d="M361.554 8.40234H361.412L53.0176 205.353L165.187 276.76L361.554 8.40234Z" fill="#D5EFE7"/>
</g>
<defs>
<clipPath id="clip0_2125_62472">
<rect width="448.109" height="292.004" fill="white" transform="translate(-86.5547)"/>
</clipPath>
</defs>
</svg>
