<svg width="275" height="273" viewBox="0 0 275 273" fill="none" xmlns="http://www.w3.org/2000/svg">
<g clip-path="url(#clip0_2305_3549)">
<path d="M-77.8965 153.243H-67.4826C-65.747 151.85 -64.0113 150.631 -61.9286 149.412C-40.5802 137.047 -5.52021 137.047 16.0018 149.586C18.0845 150.805 19.8202 152.024 21.3822 153.243H32.1432V173.792H31.9697C31.449 181.454 26.0685 188.942 16.1753 194.689C-5.17308 207.054 -40.2331 207.054 -61.755 194.515C-71.6482 188.768 -77.0287 181.28 -77.7229 173.792H-77.8965V153.243Z" fill="#23322D"/>
<path d="M32.325 153.928C32.4275 136.327 7.87738 121.915 -22.5092 121.737C-52.8959 121.558 -77.6122 135.682 -77.7147 153.283C-77.8173 170.883 -53.2672 185.295 -22.8805 185.474C7.5061 185.652 32.2224 171.528 32.325 153.928Z" fill="#F8F0E5"/>
<path d="M22.0853 153.872C22.1688 139.541 2.18794 127.807 -22.5431 127.662C-47.2742 127.517 -67.3904 139.016 -67.4738 153.347C-67.5573 167.677 -47.5765 179.412 -22.8454 179.557C1.88564 179.702 22.0018 168.202 22.0853 153.872Z" fill="#88C8B0"/>
<path d="M-77.8984 130.429H-67.4846C-65.7489 129.036 -64.0133 127.817 -61.9305 126.598C-40.5821 114.234 -5.52216 114.234 15.9998 126.772C18.0826 127.991 19.8182 129.21 21.3803 130.429H32.1413V150.978H31.9677C31.447 158.641 26.0665 166.129 16.1734 171.876C-5.17503 184.24 -40.235 184.24 -61.757 171.701C-71.6501 165.955 -77.0306 158.466 -77.7249 150.978H-77.8984V130.429Z" fill="#23322D"/>
<path d="M32.2371 131.199C32.3396 113.599 7.78948 99.1863 -22.5972 99.0081C-52.9838 98.8299 -77.7001 112.954 -77.8026 130.554C-77.9052 148.154 -53.3551 162.567 -22.9684 162.745C7.4182 162.923 32.1345 148.8 32.2371 131.199Z" fill="#F8F0E5"/>
<path d="M21.9974 131.143C22.0809 116.813 2.10004 105.078 -22.631 104.933C-47.3621 104.788 -67.4783 116.288 -67.5617 130.618C-67.6452 144.949 -47.6644 156.683 -22.9333 156.828C1.79774 156.973 21.9139 145.474 21.9974 131.143Z" fill="#88C8B0"/>
<path d="M-77.8965 107.79H-67.4826C-65.747 106.397 -64.0113 105.178 -61.9286 103.959C-40.5802 91.5949 -5.52021 91.5949 16.0018 104.133C18.0845 105.352 19.8202 106.571 21.3822 107.79H32.1432V128.339H31.9697C31.449 136.002 26.0685 143.49 16.1753 149.237C-5.17308 161.601 -40.2331 161.601 -61.755 149.063C-71.6482 143.316 -77.0287 135.828 -77.7229 128.339H-77.8965V107.79Z" fill="#23322D"/>
<path d="M32.325 108.475C32.4275 90.8749 7.87737 76.4624 -22.5093 76.2843C-52.8959 76.1061 -77.6122 90.2296 -77.7147 107.83C-77.8173 125.431 -53.2672 139.843 -22.8805 140.021C7.50609 140.199 32.2224 126.076 32.325 108.475Z" fill="#F8F0E5"/>
<path d="M22.0853 108.42C22.1688 94.0891 2.18793 82.3544 -22.5431 82.2094C-47.2742 82.0643 -67.3904 93.5639 -67.4738 107.894C-67.5573 122.225 -47.5765 133.959 -22.8454 134.105C1.88563 134.25 22.0018 122.75 22.0853 108.42Z" fill="#D05F0D"/>
<path d="M-99.2441 116.501H-88.8303C-87.0946 115.108 -85.359 113.889 -83.2762 112.67C-61.9278 100.306 -26.8679 100.306 -5.34591 112.844C-3.26314 114.063 -1.5275 115.282 0.0345806 116.501H10.7956V137.05H10.622C10.1013 144.713 4.72081 152.201 -5.17235 157.948C-26.5207 170.312 -61.5807 170.312 -83.1027 157.774C-92.9958 152.027 -98.3763 144.539 -99.0706 137.05H-99.2441V116.501Z" fill="#23322D"/>
<path d="M10.7957 117.371C10.8982 99.7708 -13.6519 85.3583 -44.0386 85.1801C-74.4252 85.0019 -99.1415 99.1255 -99.244 116.726C-99.3466 134.326 -74.7965 148.739 -44.4098 148.917C-14.0232 149.095 10.6931 134.972 10.7957 117.371Z" fill="#F8F0E5"/>
<path d="M0.555986 117.316C0.639464 102.985 -19.3414 91.2504 -44.0724 91.1054C-68.8035 90.9603 -88.9197 102.46 -89.0031 116.79C-89.0866 131.121 -69.1058 142.855 -44.3747 143.001C-19.6437 143.146 0.472508 131.646 0.555986 117.316Z" fill="#D05F0D"/>
<path d="M174.637 256.686C174.637 261.04 171.86 265.219 166.306 268.528C155.198 274.971 136.974 274.971 125.692 268.528C120.138 265.219 117.188 261.04 117.188 256.686C117.188 273.404 130.899 307.711 130.899 307.711C131.767 309.975 133.85 312.064 136.8 313.806C145.478 318.856 159.537 318.856 168.042 313.806C172.381 311.368 174.464 308.059 174.464 304.75L174.637 256.686Z" fill="#003D22"/>
<path d="M117.359 256.686C117.359 265.045 120.831 277.758 124.302 288.381C127.773 299.003 131.245 307.537 131.245 307.537C132.112 309.8 134.195 311.89 137.146 313.632C137.493 313.806 138.014 314.154 138.361 314.328C147.039 318.682 160.23 318.508 168.387 313.632C172.726 311.194 174.809 307.885 174.809 304.576V256.686C174.809 260.866 172.032 265.219 166.478 268.354C155.37 274.797 137.146 274.797 125.864 268.354C120.136 265.219 117.359 261.04 117.359 256.686Z" fill="#23322D"/>
<path d="M166.133 245.018C154.851 238.574 136.8 238.574 125.519 245.018C119.965 248.326 117.188 252.506 117.188 256.86C117.188 261.039 119.965 265.393 125.692 268.701C136.974 275.145 155.025 275.145 166.306 268.701C171.86 265.393 174.637 261.213 174.637 256.86C174.637 252.506 171.86 248.152 166.133 245.018Z" fill="#003D22"/>
<path d="M113.022 220.99C113.022 225.343 110.245 229.523 104.691 232.831C93.5828 239.275 75.3586 239.275 64.0769 232.831C58.5229 229.523 55.5723 225.343 55.5723 220.99C55.5723 237.708 69.2838 272.014 69.2838 272.014C70.1517 274.278 72.2344 276.368 75.185 278.109C83.8632 283.159 97.9219 283.159 106.427 278.109C110.766 275.671 112.848 272.362 112.848 269.054L113.022 220.99Z" fill="#23322D"/>
<path d="M104.517 209.147C93.2357 202.704 75.185 202.704 63.9034 209.147C58.3493 212.456 55.5723 216.635 55.5723 220.989C55.5723 225.168 58.3493 229.522 64.0769 232.831C75.3586 239.274 93.4093 239.274 104.691 232.831C110.245 229.522 113.022 225.342 113.022 220.989C113.022 216.809 110.071 212.456 104.517 209.147Z" fill="#003D22"/>
<path d="M284.159 193.301C284.159 197.655 281.382 201.834 275.828 205.143C264.72 211.586 246.495 211.586 235.214 205.143C229.66 201.834 226.709 197.655 226.709 193.301C226.709 210.019 240.421 244.325 240.421 244.325C241.288 246.589 243.371 248.679 246.322 250.42C255 255.471 269.059 255.471 277.563 250.42C281.902 247.982 283.985 244.674 283.985 241.365L284.159 193.301Z" fill="#003D22"/>
<path d="M226.881 193.301C226.881 201.66 230.352 214.372 233.823 224.995C237.295 235.618 240.766 244.151 240.766 244.151C241.634 246.415 243.717 248.505 246.667 250.246C247.014 250.42 247.535 250.769 247.882 250.943C256.56 255.296 269.751 255.122 277.909 250.246C282.248 247.808 284.331 244.499 284.331 241.191V193.301C284.331 197.48 281.554 201.834 276 204.969C264.891 211.412 246.667 211.412 235.386 204.969C229.658 201.834 226.881 197.48 226.881 193.301Z" fill="#23322D"/>
<path d="M275.824 181.457C264.542 175.014 246.492 175.014 235.21 181.457C229.656 184.766 226.879 188.946 226.879 193.299C226.879 197.479 229.656 201.832 235.384 205.141C246.665 211.584 264.716 211.584 275.998 205.141C281.552 201.832 284.329 197.653 284.329 193.299C284.155 188.946 281.378 184.766 275.824 181.457Z" fill="#003D22"/>
<path d="M222.542 157.424C222.542 161.777 219.765 165.957 214.21 169.266C203.102 175.709 184.878 175.709 173.596 169.266C168.042 165.957 165.092 161.777 165.092 157.424C165.092 174.142 178.803 208.448 178.803 208.448C179.671 210.712 181.754 212.802 184.705 214.543C193.383 219.593 207.441 219.593 215.946 214.543C220.285 212.105 222.368 208.796 222.368 205.488L222.542 157.424Z" fill="white" stroke="black" stroke-width="0.635789" stroke-miterlimit="10" stroke-linecap="round" stroke-linejoin="round"/>
<path d="M214.037 145.756C202.755 139.312 184.705 139.312 173.423 145.756C167.869 149.064 165.092 153.244 165.092 157.598C165.092 161.777 167.869 166.131 173.596 169.439C184.878 175.883 202.929 175.883 214.21 169.439C219.765 166.131 222.542 161.951 222.542 157.598C222.542 153.244 219.765 148.89 214.037 145.756Z" fill="#003D22"/>
<path d="M268.017 215.415C287.282 204.27 303.077 176.059 303.597 143.842C304.812 65.4767 225.667 4.70019 154.159 47.0174C119.966 67.2182 101.742 77.841 83.8651 88.1156C65.1202 98.9125 48.2845 109.884 38.0442 126.253C30.7545 138.095 27.2832 152.897 27.2832 170.834C27.2832 234.397 75.3605 297.438 148.778 278.978C157.803 276.714 167.87 273.406 177.416 267.833C211.088 248.329 250.487 225.69 268.017 215.415Z" fill="#CBEBE1"/>
<path d="M99.312 203.401C103.05 203.401 106.081 197.242 106.081 189.644C106.081 182.046 103.05 175.887 99.312 175.887C95.5736 175.887 92.543 182.046 92.543 189.644C92.543 197.242 95.5736 203.401 99.312 203.401Z" fill="#97D6C3"/>
<path d="M52.101 176.059C55.8394 176.059 58.87 169.9 58.87 162.302C58.87 154.704 55.8394 148.544 52.101 148.544C48.3626 148.544 45.332 154.704 45.332 162.302C45.332 169.9 48.3626 176.059 52.101 176.059Z" fill="#97D6C3"/>
<path d="M47.5877 83.0634C47.7613 83.2375 47.9349 83.2375 48.1084 83.4117C48.282 83.5858 48.6291 83.76 48.8027 83.9341C48.9763 84.1083 49.3234 84.2824 49.4969 84.4565C49.6705 84.6307 49.8441 84.8048 50.0176 84.8048C50.3648 84.979 50.5383 85.3273 50.8855 85.5014C51.059 85.6756 51.2326 85.8497 51.4061 86.0239C51.7533 86.198 52.1004 86.5463 52.4475 86.8946C52.6211 87.0687 52.7947 87.2429 53.1418 87.417C53.4889 87.7653 53.836 87.9394 54.1832 88.2877C54.5303 88.636 55.051 88.9843 55.3981 89.3326C55.9188 89.6809 56.2659 90.2033 56.7866 90.7258L56.9602 90.8999C57.4809 91.4223 57.828 91.7706 58.3487 92.2931C58.5223 92.4672 58.5223 92.4672 58.6958 92.6414C59.2165 93.1638 59.7372 93.6862 60.0844 94.2087L60.2579 94.3828C60.7786 94.9052 61.1257 95.4277 61.6464 95.9501L61.82 96.1243C62.3407 96.6467 62.8614 97.3433 63.3821 97.8657C63.5556 98.0398 63.5556 98.214 63.7292 98.214C64.2499 98.9106 64.7706 99.433 65.2913 100.13C65.812 100.826 66.3327 101.349 66.8534 102.045C67.0269 102.219 67.2005 102.568 67.3741 102.742C67.7212 103.264 68.2419 103.787 68.589 104.309C68.7626 104.483 68.9361 104.831 69.1097 105.006C69.6304 105.702 70.3246 106.573 70.8453 107.444L83.342 100.13C82.8213 99.433 82.3006 98.7364 81.7799 98.0398C81.7799 97.8657 81.6063 97.8657 81.6063 97.6916C81.4327 97.5174 81.2592 97.1691 81.0856 96.995C80.7385 96.4725 80.2178 95.9501 79.8707 95.4277C79.6971 95.2535 79.5235 94.9052 79.35 94.7311C79.1764 94.5569 79.1764 94.3828 79.0028 94.2087C78.6557 93.6862 78.135 93.1638 77.7879 92.6414C77.4408 92.1189 76.9201 91.5965 76.573 91.2482C76.3994 91.0741 76.2258 90.8999 76.2258 90.7258C76.0523 90.5516 76.0523 90.3775 75.8787 90.3775C75.358 89.855 75.0109 89.3326 74.4902 88.8102C74.4902 88.8102 74.4902 88.636 74.3166 88.636L74.1431 88.4619C73.6224 87.9394 73.1017 87.417 72.7545 86.8946L72.581 86.7204C72.581 86.7204 72.581 86.7204 72.581 86.5463C72.0603 86.0239 71.7132 85.5014 71.1925 85.1531C71.0189 84.979 71.0189 84.979 70.8453 84.8048C70.6718 84.6307 70.6718 84.6307 70.4982 84.4565C70.1511 84.1083 69.8039 83.76 69.4568 83.4117L69.2833 83.2375C69.1097 83.0634 68.9361 82.8892 68.7626 82.7151C68.4154 82.3668 68.2419 82.1927 67.8947 82.0185C67.5476 81.6702 67.2005 81.4961 67.0269 81.1478C66.8534 81.1478 66.8534 80.9737 66.6798 80.9737C66.3327 80.6254 65.9855 80.4512 65.6384 80.1029C65.4648 79.9288 65.2913 79.9288 65.2913 79.7546L65.1177 79.5805C64.7706 79.2322 64.4235 79.0581 64.0763 78.7098C63.9028 78.5356 63.7292 78.5356 63.5556 78.3615C63.5556 78.3615 63.5556 78.3615 63.3821 78.3615C63.0349 78.1873 62.8614 77.839 62.5142 77.6649C62.3407 77.4908 62.1671 77.4908 61.9936 77.3166C61.82 77.1425 61.4729 76.9683 61.2993 76.7942C61.1257 76.62 60.9522 76.4459 60.7786 76.4459C60.605 76.2717 60.4315 76.2717 60.2579 76.0976C60.0844 75.9235 59.7372 75.7493 59.5637 75.5752C59.5637 75.5752 59.5637 75.5752 59.3901 75.5752C59.2165 75.401 59.043 75.401 58.8694 75.2269C58.6958 75.0527 58.5223 75.0527 58.3487 74.8786C58.1752 74.8786 58.1751 74.7044 58.0016 74.7044C57.6545 74.5303 57.4809 74.3561 57.1338 74.182H56.9602C56.7866 74.0079 56.6131 74.0079 56.4395 74.0079C56.2659 74.0079 56.0924 73.8337 56.0924 73.8337H55.9188C55.7453 73.8337 55.5717 73.6596 55.3981 73.6596C55.2246 73.6596 55.2246 73.4854 55.051 73.4854H54.8774C54.7039 73.4854 54.5303 73.3113 54.3567 73.3113C54.1832 73.3113 54.1832 73.1371 54.0096 73.1371H53.836C53.6625 73.1371 53.4889 72.963 53.4889 72.963C53.3153 72.963 53.3154 72.963 53.1418 72.7888H52.9682C52.7947 72.7888 52.6211 72.6147 52.6211 72.6147H52.4475H52.274C52.1004 72.6147 51.9268 72.6147 51.9268 72.4406H51.7533C51.5797 72.4406 51.5797 72.4406 51.4061 72.4406C51.2326 72.4406 51.2326 72.4406 51.059 72.4406H50.8855C50.7119 72.4406 50.7119 72.4406 50.7119 72.4406C50.5383 72.4406 50.5383 72.4406 50.3648 72.4406H50.1912H50.0176C49.8441 72.4406 49.8441 72.4406 49.6705 72.4406H49.4969H49.3234C49.1498 72.4406 48.9762 72.4406 48.9762 72.4406H48.8027H48.6291C48.4555 72.4406 48.282 72.4406 48.282 72.4406H48.1084C48.1084 72.4406 48.1084 72.4406 47.9349 72.4406C47.7613 72.4406 47.5877 72.4406 47.4142 72.4406H47.2406C47.067 72.4406 46.7199 72.6147 46.5463 72.6147C46.3728 72.7888 46.0257 72.7888 45.8521 72.963L33.3555 80.2771C33.529 80.1029 33.8762 80.1029 34.0497 79.9288H34.2233C34.3969 79.9288 34.744 79.7546 34.9175 79.7546H35.0911C35.2647 79.7546 35.4382 79.7546 35.6118 79.7546C35.6118 79.7546 35.7854 79.7546 35.9589 79.7546C36.1325 79.7546 36.3061 79.7546 36.3061 79.7546C36.4796 79.7546 36.4796 79.7546 36.6532 79.7546C36.8268 79.7546 36.8268 79.7546 37.0003 79.7546C37.1739 79.7546 37.1739 79.7546 37.3474 79.7546C37.521 79.7546 37.521 79.7546 37.6946 79.7546C37.8681 79.7546 37.8681 79.7546 38.0417 79.7546C38.2153 79.7546 38.2153 79.7546 38.3888 79.7546C38.5624 79.7546 38.736 79.7546 38.736 79.7546C38.9095 79.7546 38.9095 79.7546 39.0831 79.7546C39.2566 79.7546 39.4302 79.7546 39.6038 79.9288C39.7773 79.9288 39.7773 79.9288 39.9509 80.1029C40.1245 80.1029 40.298 80.2771 40.4716 80.2771C40.6452 80.2771 40.8187 80.2771 40.8187 80.4512C40.9923 80.4512 41.1659 80.6254 41.3394 80.6254C41.513 80.6254 41.6865 80.7995 41.6865 80.7995C41.8601 80.7995 42.0337 80.9737 42.2072 80.9737C42.3808 80.9737 42.5544 81.1478 42.5544 81.1478C42.7279 81.1478 42.9015 81.3219 43.0751 81.3219C43.2486 81.3219 43.4222 81.4961 43.5958 81.4961C43.7693 81.6702 43.9429 81.6702 44.1164 81.8444C44.29 81.8444 44.4636 82.0185 44.6371 82.0185C44.9843 82.1927 45.3314 82.3668 45.6785 82.541C46.0257 82.7151 46.1992 82.8892 46.5463 83.0634C46.7199 83.2375 46.8935 83.2375 47.067 83.4117C47.067 82.7151 47.4142 82.8892 47.5877 83.0634Z" fill="#23322D"/>
<path d="M45.5067 81.6695C52.1022 85.5007 60.7804 93.3372 71.0206 107.443C57.4826 108.662 46.201 115.105 38.3906 126.076C24.679 95.6011 28.4974 81.6695 33.0101 79.0573C35.0928 78.0125 39.432 78.1866 45.5067 81.6695Z" fill="#97D6C3"/>
<path d="M176.375 163.696V163.522C176.375 163.348 176.375 163.174 176.375 162.825C176.375 162.651 176.375 162.477 176.375 162.303V162.129C176.375 161.955 176.375 161.78 176.375 161.606C176.375 161.432 176.375 161.258 176.375 161.084C176.375 160.91 176.375 160.91 176.375 160.736C176.375 160.561 176.375 160.387 176.375 160.213C176.375 160.039 176.375 159.865 176.375 159.865C176.375 159.691 176.375 159.691 176.375 159.516C176.375 159.342 176.375 159.168 176.375 158.994C176.375 158.82 176.375 158.82 176.375 158.646C176.375 158.472 176.375 158.297 176.375 158.297C176.375 158.123 176.375 157.949 176.375 157.775V157.601C176.375 157.427 176.375 157.253 176.375 157.078C176.375 156.904 176.375 156.73 176.375 156.556V156.382C176.375 156.208 176.375 155.859 176.201 155.685C176.201 155.511 176.201 155.511 176.201 155.337C176.201 154.989 176.028 154.64 176.028 154.292V154.118C176.028 153.77 175.854 153.596 175.854 153.247C175.854 153.247 175.854 153.247 175.854 153.073C175.854 152.899 175.854 152.899 175.681 152.725C175.681 152.551 175.507 152.377 175.507 152.202V152.028C175.507 151.854 175.507 151.854 175.334 151.68C175.334 151.506 175.334 151.506 175.16 151.332C175.16 151.158 175.16 151.158 174.986 150.983C174.986 150.809 174.986 150.809 174.813 150.635V150.461C174.813 150.287 174.639 150.113 174.639 149.939V149.764C174.639 149.59 174.466 149.242 174.466 149.068V148.894V148.72C174.466 148.545 174.466 148.545 174.292 148.371C174.292 148.197 174.119 148.023 174.119 148.023V147.849C174.119 147.675 173.945 147.5 173.945 147.326V147.152V146.978C173.945 146.978 173.945 146.804 173.772 146.804C173.772 146.63 173.598 146.63 173.598 146.456L173.424 146.281C173.424 146.281 173.424 146.281 173.424 146.107C173.251 145.933 173.251 145.759 173.077 145.585C173.077 145.585 173.077 145.585 173.077 145.411C172.904 145.062 172.557 144.714 172.383 144.192C172.209 143.843 172.036 143.669 171.689 143.321C171.689 143.147 171.515 143.147 171.342 142.973C171.342 142.799 171.168 142.799 171.168 142.624C170.994 142.45 170.821 142.276 170.647 142.102C170.474 141.928 170.3 141.58 170.127 141.405L169.953 141.231C169.78 141.057 169.78 141.057 169.606 140.883C169.606 140.883 169.606 140.883 169.432 140.709C169.259 140.535 169.259 140.535 169.085 140.361C168.912 140.186 168.912 140.186 168.738 140.012C168.738 140.012 168.565 140.012 168.565 139.838C168.391 139.664 168.391 139.664 168.217 139.49C168.044 139.316 168.044 139.316 167.87 139.142L167.697 138.967C167.523 138.793 167.35 138.619 167.35 138.619C167.176 138.619 167.176 138.445 167.002 138.445C167.002 138.445 166.829 138.445 166.829 138.271C166.655 138.097 166.482 137.923 166.308 137.923C166.135 137.923 166.135 137.748 165.961 137.748C165.961 137.748 165.788 137.748 165.788 137.574C165.614 137.4 165.44 137.226 165.267 137.226C165.093 137.052 165.093 137.052 164.92 136.878C164.92 136.878 164.92 136.878 164.746 136.704C164.573 136.529 164.399 136.355 164.225 136.355C164.052 136.181 164.052 136.181 163.878 136.007C163.878 136.007 163.878 136.007 163.705 136.007C163.531 135.833 163.358 135.833 163.184 135.659C163.011 135.485 163.011 135.484 162.837 135.31C162.837 135.31 162.837 135.31 162.663 135.31C162.49 135.136 162.316 135.136 162.143 134.962C161.969 134.788 161.796 134.788 161.796 134.614C161.796 134.614 161.796 134.614 161.622 134.614C161.448 134.44 161.275 134.44 161.101 134.265C160.928 134.091 160.754 134.091 160.754 133.917L160.581 133.743C160.233 133.569 160.06 133.395 159.713 133.221C159.713 133.221 159.539 133.221 159.539 133.046C159.366 132.872 159.192 132.872 159.019 132.698C158.845 132.698 158.671 132.524 158.498 132.524C158.324 132.524 158.324 132.35 158.151 132.35C157.977 132.176 157.804 132.176 157.63 132.002C157.456 132.002 157.456 131.827 157.283 131.827C157.109 131.827 157.109 131.653 156.936 131.653C156.762 131.479 156.589 131.479 156.242 131.479C156.068 131.479 156.068 131.305 155.894 131.305C155.721 131.305 155.547 131.131 155.547 131.131C155.374 131.131 155.027 130.957 154.853 130.957C154.679 130.957 154.679 130.957 154.506 130.783C154.332 130.783 154.159 130.608 154.159 130.608C153.985 130.608 153.638 130.434 153.464 130.434C153.291 130.434 153.291 130.434 153.117 130.26C152.944 130.26 152.77 130.26 152.77 130.086C152.423 130.086 152.25 129.912 151.902 129.912C151.729 129.912 151.729 129.912 151.555 129.738C151.382 129.738 151.382 129.738 151.208 129.738C150.861 129.738 150.514 129.564 150.167 129.564C149.993 129.564 149.82 129.564 149.82 129.389C149.646 129.389 149.646 129.389 149.473 129.389C149.125 129.389 148.778 129.215 148.258 129.215C148.084 129.215 147.91 129.215 147.737 129.215H147.563C146.869 129.215 146.348 129.041 145.654 129.041C145.133 129.041 144.613 129.041 144.266 129.041C144.092 129.041 143.918 129.041 143.918 129.041C143.745 129.041 143.571 129.041 143.224 129.041C143.051 129.041 142.877 129.041 142.703 129.041C142.53 129.041 142.356 129.041 142.009 129.041C141.662 129.041 141.315 129.041 140.968 129.041C140.794 129.041 140.621 129.041 140.447 129.041H140.274C140.1 129.041 139.753 129.041 139.579 129.041C139.232 129.041 138.885 129.041 138.538 129.215C138.191 129.215 138.017 129.389 137.67 129.389C137.323 129.389 136.976 129.564 136.629 129.564C136.455 129.564 136.455 129.564 136.282 129.564C135.761 129.738 135.414 129.738 134.893 129.912L122.396 137.226C122.917 137.052 123.438 137.052 123.959 136.878C124.306 136.878 124.653 136.704 125 136.704C125.347 136.704 125.521 136.529 125.868 136.529C126.215 136.529 126.562 136.529 126.909 136.355C127.256 136.355 127.43 136.355 127.777 136.181C127.951 136.181 128.124 136.181 128.298 136.181C128.645 136.181 128.992 136.181 129.339 136.181C129.513 136.181 129.686 136.181 130.033 136.181C130.38 136.181 130.728 136.181 131.248 136.181C131.422 136.181 131.595 136.181 131.595 136.181C132.116 136.181 132.637 136.181 133.157 136.181C133.852 136.181 134.546 136.355 135.067 136.355C135.24 136.355 135.414 136.355 135.587 136.529C135.935 136.529 136.455 136.704 136.802 136.704C136.976 136.704 137.323 136.878 137.497 136.878C137.844 136.878 138.191 137.052 138.538 137.052C138.712 137.052 139.059 137.226 139.232 137.226C139.579 137.226 139.753 137.4 140.1 137.4C140.274 137.4 140.621 137.574 140.794 137.574C140.968 137.574 141.315 137.748 141.489 137.748C141.662 137.748 142.009 137.923 142.183 137.923C142.356 137.923 142.704 138.097 142.877 138.097C143.051 138.271 143.398 138.271 143.571 138.445C143.745 138.445 143.918 138.619 144.092 138.619C144.266 138.793 144.613 138.793 144.786 138.967C144.96 139.142 145.133 139.142 145.307 139.316C145.481 139.49 145.828 139.49 146.001 139.664C146.175 139.838 146.348 139.838 146.522 140.012C146.869 140.186 147.216 140.361 147.563 140.535C147.737 140.709 148.084 140.883 148.258 140.883C148.431 141.057 148.605 141.057 148.778 141.231C148.952 141.405 149.125 141.405 149.299 141.58C149.473 141.754 149.646 141.754 149.82 141.928C149.993 142.102 150.167 142.102 150.34 142.276C150.514 142.45 150.687 142.45 150.861 142.624C151.035 142.799 151.208 142.799 151.382 142.973C151.555 143.147 151.729 143.321 151.902 143.321C152.076 143.495 152.25 143.495 152.423 143.669C152.597 143.843 152.77 144.018 152.944 144.018C153.117 144.192 153.291 144.192 153.291 144.366C153.464 144.54 153.638 144.714 153.812 144.714C153.985 144.888 154.159 144.888 154.159 145.062C154.332 145.237 154.506 145.411 154.506 145.411C154.679 145.585 154.853 145.759 154.853 145.759C155.027 145.933 155.027 145.933 155.2 146.107C155.374 146.281 155.547 146.456 155.547 146.456C155.721 146.63 155.721 146.63 155.894 146.804C156.068 146.978 156.242 147.152 156.415 147.326L156.589 147.5C156.762 147.675 156.936 148.023 157.283 148.197C157.456 148.371 157.63 148.72 157.804 148.894C157.804 149.068 157.977 149.068 157.977 149.242C158.151 149.416 158.151 149.59 158.324 149.59C158.498 149.939 158.671 150.113 159.019 150.461C159.366 150.809 159.539 151.332 159.713 151.68C159.713 151.68 159.713 151.854 159.886 151.854C160.06 152.028 160.06 152.377 160.233 152.551L160.407 152.725C160.581 152.899 160.581 153.073 160.754 153.247V153.421C160.928 153.596 160.928 153.944 161.101 154.118V154.292C161.275 154.466 161.275 154.815 161.448 154.989V155.163C161.622 155.511 161.622 155.685 161.796 156.034V156.208C161.969 156.382 161.969 156.73 162.143 156.904C162.143 157.078 162.143 157.078 162.316 157.253C162.316 157.427 162.49 157.775 162.49 157.949C162.49 158.123 162.49 158.123 162.663 158.297C162.663 158.472 162.837 158.82 162.837 158.994C162.837 159.168 162.837 159.168 163.011 159.342C163.011 159.691 163.184 160.039 163.184 160.387V160.561C163.184 160.91 163.358 161.258 163.358 161.606C163.358 161.78 163.358 161.78 163.358 161.955C163.358 162.303 163.531 162.477 163.531 162.825C163.531 162.999 163.531 163.174 163.531 163.348C163.531 163.522 163.531 163.87 163.705 164.044C163.705 164.218 163.705 164.393 163.705 164.567C163.705 164.741 163.705 165.089 163.705 165.263C163.705 165.437 163.705 165.612 163.705 165.786C163.705 165.96 163.705 166.308 163.705 166.482C163.705 166.656 163.705 166.831 163.705 167.005C163.705 167.179 163.705 167.527 163.705 167.701C163.705 167.875 163.705 168.05 163.705 168.224C163.705 168.398 163.705 168.746 163.705 168.92C163.705 169.094 163.705 169.269 163.705 169.617C163.705 169.791 163.705 170.139 163.705 170.313C163.705 170.488 163.705 170.836 163.705 171.01C163.705 171.184 163.705 171.358 163.705 171.707C163.705 172.055 163.705 172.229 163.705 172.577C163.705 172.751 163.705 172.926 163.705 173.274C163.705 173.622 163.705 173.796 163.531 174.145C163.531 174.319 163.531 174.493 163.358 174.841C163.358 175.19 163.184 175.538 163.184 175.886C163.184 176.06 163.184 176.234 163.011 176.409C162.837 176.931 162.663 177.628 162.49 178.15C162.316 178.498 162.143 179.021 162.143 179.369C162.143 179.543 161.969 179.543 161.969 179.717C161.796 180.066 161.796 180.24 161.622 180.588C161.622 180.762 161.448 180.936 161.448 181.285C161.275 181.633 161.275 181.807 161.101 182.155C160.928 182.329 160.928 182.504 160.754 182.852C160.581 183.026 160.581 183.2 160.407 183.548C160.233 183.897 160.06 184.419 159.886 184.767C159.713 184.942 159.713 185.116 159.539 185.29C159.192 185.812 159.019 186.335 158.671 186.857V187.031C158.498 187.38 158.324 187.554 158.151 187.902C157.977 188.076 157.804 188.25 157.804 188.599C157.63 188.947 157.456 189.121 157.109 189.469C156.936 189.644 156.762 189.818 156.762 189.992C156.589 190.34 156.242 190.688 156.068 190.863C155.894 191.037 155.894 191.211 155.721 191.385C155.374 191.907 154.853 192.256 154.506 192.778L167.002 185.464C167.35 184.942 167.87 184.593 168.217 184.071C168.391 183.897 168.391 183.723 168.565 183.548C168.738 183.2 169.085 182.852 169.259 182.678C169.432 182.504 169.606 182.329 169.606 182.155C169.78 181.807 169.953 181.633 170.3 181.285C170.474 181.11 170.647 180.936 170.647 180.588C170.821 180.24 170.994 180.066 171.168 179.717C171.168 179.717 171.168 179.717 171.168 179.543C171.515 179.021 171.862 178.498 172.036 177.976C172.209 177.802 172.209 177.628 172.383 177.453C172.557 177.105 172.73 176.583 172.904 176.234C172.904 176.06 173.077 176.06 173.077 175.886C173.077 175.712 173.251 175.712 173.251 175.538C173.424 175.364 173.424 175.19 173.598 174.841C173.771 174.493 173.771 174.319 173.945 173.971C173.945 173.796 174.119 173.622 174.119 173.274C174.119 173.1 174.292 173.1 174.292 172.926C174.292 172.751 174.466 172.577 174.466 172.403C174.466 172.229 174.639 172.229 174.639 172.055C174.813 171.707 174.986 171.184 174.986 170.836C175.16 170.313 175.334 169.617 175.507 169.094V168.92C175.507 168.746 175.507 168.746 175.507 168.572C175.507 168.224 175.681 167.875 175.681 167.527C175.681 167.353 175.681 167.353 175.681 167.179C175.681 167.005 175.681 167.005 175.681 166.831C175.681 166.482 175.854 166.308 175.854 165.96C175.854 165.786 175.854 165.612 175.854 165.612V165.437C175.854 165.089 175.854 164.915 175.854 164.567C175.854 164.393 175.854 164.218 175.854 164.044V163.87C175.854 163.696 175.854 163.348 175.854 163.174C176.201 164.044 176.375 163.87 176.375 163.696Z" fill="#23322D"/>
<path d="M147.391 140.71C153.466 144.192 157.631 148.894 159.888 152.726C164.4 160.562 168.045 178.847 154.333 193.301C146.523 173.275 135.415 153.77 121.877 136.878C131.944 134.614 140.795 136.878 147.391 140.71Z" fill="#97D6C3"/>
<path d="M60.6056 212.279C67.3746 216.284 72.9287 225.862 72.9287 233.698V247.804C72.9287 255.641 67.3746 258.949 60.4321 254.944L35.786 240.664C28.8434 236.659 23.4629 227.081 23.4629 219.244V205.139C23.4629 197.302 29.017 193.993 35.9595 197.999L60.6056 212.279Z" fill="#D5EFE7"/>
<path d="M60.0838 221.331C62.3401 222.55 64.0757 225.685 64.0757 228.123V243.099C64.0757 245.537 62.3401 246.582 60.0838 245.363C57.8274 244.144 56.0918 241.01 56.0918 238.572V223.595C56.0918 221.157 57.8274 220.112 60.0838 221.331Z" fill="#97D6C3"/>
<path d="M36.6541 207.75C38.9104 208.969 40.6461 212.104 40.6461 214.542V229.518C40.6461 231.957 38.9104 233.001 36.6541 231.782C34.3978 230.563 32.6621 227.429 32.6621 224.991V210.014C32.6621 207.576 34.5713 206.531 36.6541 207.75Z" fill="#97D6C3"/>
<path d="M87.506 224.82C87.506 224.645 87.506 224.471 87.506 224.297C87.506 224.123 87.506 224.123 87.506 223.949C87.506 223.949 87.506 223.949 87.506 223.775V223.601C87.506 223.426 87.506 223.252 87.506 222.904C87.506 222.73 87.506 222.556 87.3324 222.207C87.3324 222.033 87.3324 221.859 87.1588 221.685C87.1588 221.511 87.1589 221.337 86.9853 220.988V220.814V220.64C86.9853 220.466 86.9853 220.466 86.9853 220.292C86.9853 220.118 86.8117 219.769 86.8117 219.595C86.8117 219.421 86.6382 219.247 86.6382 219.073C86.6382 219.073 86.6382 219.073 86.6382 218.899C86.6382 218.724 86.4646 218.55 86.4646 218.202C86.4646 218.028 86.291 217.854 86.291 217.505C86.291 217.505 86.291 217.505 86.291 217.331C86.291 217.331 86.291 217.331 86.291 217.157C86.291 216.983 86.1175 216.809 86.1175 216.809C86.1175 216.635 85.9439 216.461 85.9439 216.286C85.9439 216.112 85.7703 215.938 85.7703 215.938C85.5968 215.764 85.5968 215.59 85.4232 215.416C85.2496 215.242 85.2496 214.893 85.0761 214.719C85.0761 214.719 85.0761 214.719 85.0761 214.545C85.0761 214.545 85.0761 214.545 85.0761 214.371C84.9025 214.197 84.9025 214.023 84.7289 213.848C84.5554 213.674 84.5554 213.5 84.3818 213.152C84.3818 212.978 84.2082 212.978 84.2082 212.804C84.2082 212.804 84.2082 212.804 84.2082 212.629C84.0347 212.455 84.0347 212.281 83.8611 212.107C83.6876 211.759 83.514 211.585 83.3404 211.236C83.3404 211.236 83.3404 211.236 83.3404 211.062C83.1669 210.714 82.8197 210.366 82.6462 210.017C82.4726 209.843 82.299 209.495 82.1255 209.321C81.9519 209.146 81.7783 208.972 81.6048 208.798C81.4312 208.624 81.2577 208.45 81.0841 208.276C80.9105 208.102 80.737 207.927 80.5634 207.753C80.5634 207.753 80.5634 207.753 80.5634 207.579C80.3898 207.405 80.3898 207.405 80.2163 207.231C80.0427 207.057 79.8691 206.883 79.6956 206.708L79.522 206.534C79.522 206.534 79.522 206.534 79.3485 206.36L79.1749 206.186C79.0013 206.012 78.8278 205.838 78.6542 205.664L78.4806 205.489C78.4806 205.489 78.4806 205.489 78.3071 205.315L78.1335 205.141C77.9599 204.967 77.7864 204.793 77.6128 204.793C77.4393 204.619 77.2657 204.619 77.2657 204.445C77.0921 204.27 76.9186 204.27 76.745 204.096C76.5714 203.922 76.3979 203.922 76.2243 203.748C76.2243 203.748 76.2243 203.748 76.0507 203.748L51.4046 189.468C51.2311 189.468 51.0575 189.294 51.0575 189.294H50.8839C50.8839 189.294 50.7104 189.294 50.7104 189.12H50.5368C50.5368 189.12 50.3632 189.12 50.3632 188.946H50.1897C50.0161 188.946 49.8425 188.772 49.669 188.772C49.4954 188.772 49.3218 188.597 49.1483 188.597H48.9747H48.8012C48.8012 188.597 48.8012 188.597 48.6276 188.597H48.454H48.2805H48.1069H47.9333C47.9333 188.597 47.9333 188.597 47.7598 188.597H47.5862H47.4126C47.4126 188.597 47.4126 188.597 47.2391 188.597H47.0655C46.892 188.597 46.8919 188.597 46.7184 188.597H46.5448C46.3713 188.597 46.3713 188.597 46.1977 188.597C46.1977 188.597 46.1977 188.597 46.0241 188.597H45.8506C45.677 188.597 45.5034 188.597 45.5034 188.597C45.5034 188.597 45.5034 188.597 45.3299 188.597C45.1563 188.597 44.9827 188.597 44.8092 188.597C44.4621 188.597 44.2885 188.772 43.9414 188.772C43.7678 188.772 43.7678 188.772 43.5942 188.946H43.4207C43.2471 188.946 43.0735 189.12 42.9 189.12L28.4941 197.653C28.6677 197.479 28.8413 197.479 29.0148 197.479H29.1884C29.362 197.479 29.362 197.305 29.5355 197.305C29.5355 197.305 29.5355 197.305 29.7091 197.305C29.8827 197.131 30.2298 197.13 30.5769 197.13C30.7505 197.13 30.924 197.13 31.0976 197.13H31.2712C31.4447 197.13 31.4447 197.13 31.6183 197.13H31.7919C31.9654 197.13 31.9654 197.13 32.139 197.13H32.3126C32.4861 197.13 32.4861 197.13 32.6597 197.13C32.8332 197.13 32.8332 197.13 33.0068 197.13H33.1804C33.3539 197.13 33.3539 197.13 33.5275 197.13H33.7011C33.8746 197.13 33.8746 197.13 34.0482 197.13H34.2218C34.3953 197.13 34.3953 197.131 34.5689 197.305H34.7424C34.916 197.305 35.0896 197.479 35.2631 197.479C35.4367 197.479 35.6103 197.653 35.7838 197.653H35.9574C36.131 197.653 36.3045 197.827 36.3045 197.827C36.3045 197.827 36.4781 197.827 36.4781 198.001C36.6517 198.175 36.8252 198.175 36.9988 198.35L61.6449 212.629C61.992 212.804 62.5127 213.152 62.8599 213.5C63.207 213.848 63.5541 214.023 63.9012 214.371C63.9012 214.371 63.9012 214.371 64.0748 214.545C64.4219 214.893 64.7691 215.067 65.1162 215.416C65.1162 215.416 65.1162 215.416 65.2898 215.59C65.6369 215.938 65.984 216.286 66.3311 216.635C66.3311 216.635 66.3311 216.635 66.3311 216.809C66.6783 217.157 67.0254 217.505 67.3725 218.028C67.7197 218.376 68.0668 218.899 68.4139 219.247C68.761 219.595 68.9346 220.118 69.2817 220.466C69.4553 220.814 69.6289 220.988 69.8024 221.337C69.976 221.511 70.1496 221.859 70.1496 222.033C70.1496 222.207 70.3231 222.207 70.3231 222.381C70.4967 222.73 70.6702 223.078 71.0174 223.601C71.0174 223.601 71.0174 223.601 71.0174 223.775C71.1909 224.297 71.5381 224.645 71.7116 225.168C71.8852 225.69 72.0588 226.039 72.2323 226.561C72.2323 226.561 72.2323 226.561 72.2323 226.735C72.4059 227.258 72.5794 227.78 72.753 228.302C72.753 228.302 72.753 228.302 72.753 228.477C72.9266 228.999 73.1001 229.347 73.1001 229.87V230.044C73.2737 230.566 73.2737 231.089 73.4473 231.437C73.4473 231.959 73.6208 232.482 73.6208 232.83C73.6208 232.83 73.6208 232.83 73.6208 233.004C73.6208 233.527 73.6208 234.049 73.6208 234.398V248.503C73.6208 248.677 73.6208 249.026 73.6208 249.2V249.374C73.6208 249.548 73.6208 249.722 73.6208 249.896V250.071C73.6208 250.245 73.6208 250.245 73.6208 250.419C73.6208 250.593 73.6208 250.593 73.6208 250.767C73.6208 250.941 73.6208 250.941 73.6208 251.115C73.6208 251.29 73.6208 251.29 73.6208 251.464C73.6208 251.638 73.6208 251.638 73.6208 251.812C73.6208 251.986 73.6208 251.986 73.4473 252.16C73.4473 252.334 73.4473 252.334 73.4473 252.334C73.4473 252.509 73.4473 252.683 73.2737 252.683V252.857C73.2737 253.031 73.1001 253.205 72.9266 253.553C72.753 253.902 72.5795 254.076 72.5795 254.25C72.4059 254.424 72.2323 254.598 72.2323 254.772C72.2323 254.772 72.2323 254.772 72.0588 254.947C71.8852 255.121 71.7116 255.295 71.7116 255.469C71.5381 255.643 71.3645 255.817 71.1909 255.817C71.1909 255.817 71.1909 255.817 71.0174 255.991C70.8438 256.166 70.6703 256.166 70.4967 256.34L84.9025 247.807C85.0761 247.633 85.2496 247.633 85.4232 247.458C85.4232 247.458 85.4232 247.458 85.5968 247.284C85.7703 247.11 85.9439 246.936 86.1175 246.936C86.291 246.762 86.4646 246.588 86.4646 246.413C86.4646 246.413 86.4646 246.413 86.6382 246.239C86.8117 246.065 86.9853 245.891 86.9853 245.717C87.1589 245.543 87.3324 245.194 87.3324 245.02C87.506 244.846 87.506 244.672 87.6795 244.324V244.15C87.6795 243.975 87.8531 243.975 87.8531 243.801C87.8531 243.801 87.8531 243.801 87.8531 243.627V243.453C87.8531 243.279 87.8531 243.279 88.0267 243.105V242.931V242.756C88.0267 242.582 88.0267 242.582 88.0267 242.408V242.234V242.06C88.0267 241.886 88.0267 241.886 88.0267 241.712V241.537V241.363V241.189C88.0267 241.189 88.0267 241.189 88.0267 241.015C88.0267 240.841 88.0267 240.841 88.0267 240.667V240.493C88.0267 240.318 88.0267 240.144 88.0267 239.97V225.864C87.506 225.168 87.506 224.994 87.506 224.82Z" fill="#23322D"/>
<path d="M203.275 67.9151C202.928 67.9151 202.754 67.741 202.407 67.741C202.234 67.741 202.06 67.741 201.886 67.5668C201.366 67.3927 200.672 67.3927 200.151 67.3927C199.977 67.3927 199.804 67.3927 199.63 67.3927C199.283 67.3927 198.936 67.3927 198.589 67.3927C198.415 67.3927 198.068 67.3927 197.894 67.3927C197.547 67.3927 197.374 67.3927 197.027 67.3927C196.853 67.3927 196.506 67.3927 196.332 67.3927C196.159 67.3927 195.812 67.3927 195.638 67.3927C195.465 67.3927 195.117 67.3927 194.944 67.3927C194.77 67.3927 194.423 67.3927 194.25 67.3927C194.076 67.3927 193.729 67.3927 193.555 67.5668C193.208 67.5668 193.035 67.741 192.688 67.741C192.514 67.741 192.34 67.741 191.993 67.9151C191.646 67.9151 191.299 68.0893 191.125 68.0893C190.952 68.0893 190.778 68.2634 190.605 68.2634C190.084 68.4376 189.563 68.6117 189.043 68.7859C188.869 68.96 188.522 68.96 188.348 69.1341C188.175 69.1341 188.001 69.3083 188.001 69.3083C187.654 69.4824 187.307 69.6566 186.96 69.8307L168.041 80.8019C167.521 80.8019 166.826 80.8018 166.306 80.6277C166.132 80.6277 165.959 80.6277 165.959 80.6277C165.264 80.6277 164.397 80.6277 163.702 80.6277C163.529 80.6277 163.529 80.6277 163.355 80.6277C162.661 80.6277 161.967 80.6277 161.272 80.8019C161.272 80.8019 161.272 80.8019 161.099 80.8019C160.405 80.8019 159.71 80.976 158.843 80.976C158.669 80.976 158.669 80.976 158.495 80.976C157.801 81.1501 157.107 81.1501 156.413 81.3243C156.239 81.3243 156.066 81.3243 155.892 81.4984C155.718 81.4984 155.545 81.6726 155.198 81.6726C155.024 81.6726 154.677 81.8467 154.503 81.8467C154.33 81.8467 154.156 82.0209 153.809 82.0209C153.636 82.0209 153.462 82.195 153.288 82.195C152.941 82.3692 152.594 82.3692 152.421 82.5433C152.247 82.5433 152.074 82.7174 151.9 82.7174C151.553 82.8916 151.206 82.8916 150.859 83.0657C150.685 83.0657 150.685 83.2399 150.511 83.2399C149.991 83.414 149.47 83.7623 148.949 83.9365C148.776 83.9365 148.776 84.1106 148.602 84.1106C148.082 84.4589 147.561 84.633 147.04 84.9813C145.131 86.0262 143.742 87.2452 142.528 88.4642C141.486 89.5091 140.792 90.554 140.445 91.773C140.271 91.9471 140.271 92.2954 140.271 92.4696C140.098 92.8178 140.098 93.1661 140.098 93.3403V97.1715L124.65 106.053C124.998 106.227 125.518 106.227 125.865 106.401C126.039 106.401 126.212 106.401 126.386 106.575C126.733 106.575 126.907 106.749 127.254 106.749C127.427 106.749 127.601 106.749 127.775 106.749C128.122 106.749 128.295 106.749 128.642 106.924C128.816 106.924 128.99 106.924 129.163 106.924C129.51 106.924 129.857 106.924 130.204 106.924C130.378 106.924 130.378 106.924 130.552 106.924C130.899 106.924 131.419 106.924 131.767 106.924C131.94 106.924 131.94 106.924 132.114 106.924C132.461 106.924 132.808 106.924 132.981 106.924C133.155 106.924 133.329 106.924 133.502 106.924C133.849 106.924 134.023 106.924 134.37 106.924C134.544 106.924 134.717 106.924 134.891 106.924C135.238 106.924 135.585 106.924 135.758 106.749C135.932 106.749 135.932 106.749 136.106 106.749C136.453 106.749 136.973 106.575 137.321 106.575H137.494C137.841 106.575 138.188 106.401 138.536 106.227C138.709 106.227 138.883 106.227 138.883 106.053C139.23 106.053 139.403 105.879 139.75 105.705C139.924 105.705 140.098 105.53 140.098 105.53C140.445 105.356 140.618 105.356 140.792 105.182C140.965 105.182 140.965 105.008 141.139 105.008C141.486 104.834 141.833 104.66 142.18 104.486L161.099 93.5144C168.562 94.0369 176.373 92.8178 182.1 89.3349C186.092 86.8969 188.522 83.9365 189.216 80.976V77.1448L204.664 68.2634C204.49 68.2634 204.316 68.0893 204.143 68.0893C203.622 68.0893 203.449 67.9151 203.275 67.9151Z" fill="#23322D"/>
<path d="M139.749 81.1486V93.3388C139.749 92.9905 139.923 92.6422 139.923 92.468C139.923 92.2939 140.096 91.9456 140.096 91.7715C140.617 90.5524 141.311 89.5076 142.179 88.4627C143.394 87.2437 144.782 86.0247 146.692 84.9798C147.212 84.6315 147.733 84.4574 148.254 84.1091C148.427 84.1091 148.427 83.9349 148.601 83.9349C149.121 83.7608 149.642 83.4125 150.163 83.2384C150.336 83.2384 150.336 83.0642 150.51 83.0642C150.857 82.8901 151.204 82.8901 151.551 82.7159C151.725 82.7159 151.898 82.5418 152.072 82.5418C152.419 82.3676 152.593 82.3676 152.94 82.1935C153.113 82.1935 153.287 82.0193 153.461 82.0193C153.634 82.0193 153.808 81.8452 154.155 81.8452C154.328 81.8452 154.675 81.6711 154.849 81.6711C155.023 81.6711 155.196 81.4969 155.543 81.4969C155.717 81.4969 155.89 81.4969 156.064 81.3228C156.758 81.1486 157.452 80.9745 158.147 80.9745C158.32 80.9745 158.32 80.9745 158.494 80.9745C159.188 80.8003 159.882 80.8003 160.75 80.8003C160.75 80.8003 160.75 80.8003 160.924 80.8003C161.618 80.8003 162.312 80.6262 163.007 80.6262C163.18 80.6262 163.18 80.6262 163.354 80.6262C164.048 80.6262 164.916 80.6262 165.61 80.6262C165.784 80.6262 165.957 80.6262 165.957 80.6262C166.478 80.6262 167.172 80.6262 167.693 80.8003V64.779C167.172 64.779 166.478 64.779 165.957 64.6049C165.784 64.6049 165.61 64.6049 165.61 64.6049C164.916 64.6049 164.048 64.6049 163.354 64.6049C163.18 64.6049 163.18 64.6049 163.007 64.6049C162.312 64.6049 161.618 64.6049 160.924 64.779C160.924 64.779 160.924 64.779 160.75 64.779C160.056 64.779 159.362 64.9531 158.494 64.9531C158.32 64.9531 158.32 64.9531 158.147 64.9531C157.452 65.1273 156.758 65.1273 156.064 65.3014C155.89 65.3014 155.717 65.3014 155.543 65.4756C155.37 65.4756 155.196 65.6497 154.849 65.6497C154.675 65.6497 154.328 65.8239 154.155 65.8239C153.981 65.8239 153.808 65.998 153.461 65.998C153.287 65.998 153.113 66.1722 152.94 66.1722C152.593 66.3463 152.246 66.3463 152.072 66.5205C151.898 66.5205 151.725 66.6946 151.551 66.6946C151.204 66.8687 150.857 66.8687 150.51 67.0429C150.336 67.0429 150.336 67.217 150.163 67.217C149.642 67.3912 149.121 67.7395 148.601 67.9136H148.427C148.427 67.9136 148.254 67.9136 148.254 68.0878C147.733 68.436 147.212 68.6102 146.692 68.9585C146.344 69.1326 145.997 69.3068 145.65 69.4809C145.477 69.4809 145.477 69.6551 145.303 69.6551C145.129 69.8292 144.956 70.0034 144.609 70.0034C144.435 70.0034 144.435 70.1775 144.262 70.1775C144.088 70.3516 143.914 70.5258 143.741 70.5258C143.567 70.5258 143.567 70.6999 143.394 70.6999C143.22 70.8741 143.047 71.0482 142.873 71.0482C142.7 71.0482 142.7 71.2224 142.526 71.2224C142.352 71.3965 142.179 71.5707 142.005 71.7448L141.832 71.9189C141.658 72.0931 141.485 72.4414 141.311 72.6155C141.311 72.6155 141.311 72.6155 141.311 72.7897C141.137 72.9638 140.964 73.138 140.79 73.4862L140.617 73.6604C140.443 73.8345 140.443 74.0087 140.27 74.1828C140.27 74.357 140.096 74.357 140.096 74.5311C140.096 74.7053 139.923 74.8794 139.923 75.0535C139.923 75.2277 139.749 75.2277 139.749 75.4018C139.749 75.576 139.575 75.7501 139.575 75.9243C139.575 76.0984 139.575 76.0984 139.402 76.2726C139.402 76.4467 139.228 76.6209 139.228 76.795V76.9691C139.228 77.1433 139.055 77.4916 139.055 77.6657V77.8399C139.055 78.014 139.055 78.1882 139.055 78.5364C139.055 78.7106 139.055 78.7106 139.055 78.8847C139.402 79.5813 139.575 80.452 139.749 81.1486Z" fill="#80DEA4" stroke="black" stroke-width="0.635789" stroke-miterlimit="10" stroke-linejoin="round"/>
<path d="M186.783 69.8301C187.131 69.6559 187.478 69.4818 187.825 69.3076C187.998 69.3076 187.998 69.1335 188.172 69.1335C188.346 68.9594 188.693 68.9594 188.866 68.7852C189.387 68.6111 189.908 68.4369 190.428 68.2628C190.602 68.2628 190.775 68.0886 190.949 68.0886C191.296 68.0886 191.643 67.9145 191.817 67.9145C191.99 67.9145 192.164 67.9145 192.511 67.7403C192.858 67.7403 193.032 67.5662 193.379 67.5662C193.552 67.5662 193.9 67.5662 194.073 67.3921C194.247 67.3921 194.594 67.3921 194.767 67.3921C194.941 67.3921 195.288 67.3921 195.462 67.3921C195.635 67.3921 195.982 67.3921 196.156 67.3921C196.329 67.3921 196.677 67.3921 196.85 67.3921C197.197 67.3921 197.371 67.3921 197.718 67.3921C197.892 67.3921 198.239 67.3921 198.412 67.3921C198.759 67.3921 199.107 67.3921 199.454 67.3921C199.627 67.3921 199.801 67.3921 199.974 67.3921C200.495 67.3921 201.189 67.5662 201.71 67.5662C201.884 67.5662 202.057 67.5662 202.231 67.7403C202.578 67.7403 202.751 67.9145 203.098 67.9145C203.272 67.9145 203.446 68.0886 203.619 68.0886C203.793 68.0886 203.966 68.2628 204.14 68.2628L207.611 66.173C210.735 64.4316 212.297 61.9936 211.95 59.5555C211.95 59.3814 211.95 59.2072 211.95 59.0331C211.95 58.859 211.95 58.6848 211.777 58.6848C211.777 58.5107 211.777 58.3365 211.603 58.1624C211.603 57.9882 211.43 57.9882 211.43 57.8141C211.43 57.6399 211.256 57.4658 211.256 57.2917C211.082 57.1175 211.082 56.9434 210.909 56.7692C210.735 56.5951 210.562 56.4209 210.388 56.0726C210.388 56.0726 210.388 56.0726 210.215 55.8985C210.041 55.7243 209.867 55.5502 209.52 55.2019C209.347 55.0278 209.173 55.0278 209 54.8536L208.826 54.6795L208.653 54.5053C208.479 54.3312 208.305 54.3312 208.132 54.157C207.958 53.9829 207.785 53.9829 207.611 53.8088C207.264 53.6346 207.09 53.4605 206.743 53.2863C206.57 53.1122 206.396 53.1122 206.223 53.1122C206.049 53.1122 205.876 52.938 205.876 52.938C205.528 52.7639 205.181 52.5897 204.661 52.4156C204.487 52.4156 204.313 52.2415 204.14 52.2415C203.966 52.2415 203.619 52.0673 203.446 52.0673C203.272 52.0673 203.099 51.8932 202.925 51.8932C202.578 51.8932 202.404 51.719 202.057 51.719C201.884 51.719 201.71 51.719 201.536 51.5449C201.016 51.3707 200.321 51.3707 199.801 51.3707C199.627 51.3707 199.454 51.3707 199.28 51.3707C198.933 51.3707 198.586 51.3707 198.239 51.3707C198.065 51.3707 197.718 51.3707 197.544 51.3707C197.197 51.3707 197.024 51.3707 196.677 51.3707C196.503 51.3707 196.156 51.3707 195.982 51.3707C195.809 51.3707 195.462 51.3707 195.288 51.3707C195.115 51.3707 194.767 51.3707 194.594 51.3707C194.42 51.3707 194.073 51.3707 193.9 51.3707C193.726 51.3707 193.379 51.3707 193.205 51.5449C192.858 51.5449 192.685 51.719 192.338 51.719C192.164 51.719 191.99 51.719 191.643 51.8932C191.296 51.8932 190.949 52.0673 190.775 52.0673C190.602 52.0673 190.428 52.2415 190.255 52.2415C189.734 52.4156 189.213 52.5897 188.693 52.7639C188.519 52.938 188.172 52.938 187.998 53.1122C187.825 53.1122 187.825 53.2863 187.651 53.2863C187.304 53.4605 186.957 53.6346 186.61 53.8088L167.691 64.7799V80.8012L186.783 69.8301Z" fill="#97D6C3"/>
<path d="M139.75 93.3391V81.1489L139.576 81.3231L121.005 92.1201C120.657 92.2942 120.31 92.6425 119.963 92.8166C119.79 92.8166 119.79 92.9908 119.616 92.9908C119.443 93.1649 119.269 93.3391 119.095 93.5132C118.922 93.6874 118.922 93.6874 118.748 93.8615C118.575 94.0356 118.401 94.2098 118.228 94.3839C118.054 94.5581 118.054 94.5581 117.88 94.7322C117.707 94.9064 117.707 95.0805 117.533 95.0805C117.533 95.2547 117.36 95.2547 117.36 95.4288C117.186 95.6029 117.186 95.7771 117.013 95.9512C117.013 96.1254 116.839 96.1254 116.839 96.2995C116.839 96.4737 116.665 96.6478 116.665 96.822C116.665 96.9961 116.665 96.9961 116.492 97.1703C116.492 97.3444 116.492 97.5185 116.318 97.6927C116.318 97.8668 116.318 97.8668 116.318 98.041C116.318 98.2151 116.318 98.3893 116.318 98.5634C116.318 100.827 117.707 103.091 120.657 104.658C121.699 105.355 122.914 105.877 124.302 106.226L139.75 97.3444V93.3391Z" fill="#97D6C3"/>
<mask id="mask0_2305_3549" style="mask-type:luminance" maskUnits="userSpaceOnUse" x="121" y="0" width="84" height="108">
<path d="M203.803 68.0877C203.629 68.0877 203.456 67.9136 203.282 67.9136C202.935 67.9136 202.762 67.7395 202.414 67.7395C202.241 67.7395 202.067 67.7395 201.894 67.5653C201.373 67.3912 200.679 67.3912 200.158 67.3912C199.985 67.3912 199.811 67.3912 199.637 67.3912C199.29 67.3912 198.943 67.3912 198.596 67.3912C198.422 67.3912 198.075 67.3912 197.902 67.3912C197.555 67.3912 197.381 67.3912 197.034 67.3912C196.86 67.3912 196.513 67.3912 196.34 67.3912C196.166 67.3912 195.819 67.3912 195.645 67.3912C195.472 67.3912 195.125 67.3912 194.951 67.3912C194.778 67.3912 194.43 67.3912 194.257 67.3912C194.083 67.3912 193.736 67.3912 193.563 67.5653C193.216 67.5653 193.042 67.7395 192.695 67.7395C192.521 67.7395 192.348 67.7395 192.001 67.9136C191.827 67.9136 191.827 67.9136 191.653 67.9136C196.687 52.763 197.728 35.5227 193.389 22.1135C190.091 11.839 184.19 5.7439 177.248 4.00245L176.727 3.82831L159.371 0.171265V0.345409C152.601 -0.525315 145.138 2.60929 138.196 10.2717C123.443 26.6413 117.194 57.2908 123.963 78.5364C127.088 88.2885 132.642 94.3836 139.063 96.4734V96.6475H139.411V97.3441L123.963 106.225C124.311 106.4 124.831 106.4 125.178 106.574C125.352 106.574 125.525 106.574 125.699 106.748C126.046 106.748 126.22 106.922 126.567 106.922C126.74 106.922 126.914 106.922 127.088 106.922C127.435 106.922 127.608 106.922 127.955 107.096C128.129 107.096 128.303 107.096 128.476 107.096C128.823 107.096 129.17 107.096 129.517 107.096C129.691 107.096 129.691 107.096 129.865 107.096C130.212 107.096 130.732 107.096 131.08 107.096C131.253 107.096 131.253 107.096 131.427 107.096C131.774 107.096 132.121 107.096 132.294 107.096C132.468 107.096 132.642 107.096 132.815 107.096C133.162 107.096 133.336 107.096 133.683 107.096C133.857 107.096 134.03 107.096 134.204 107.096C134.551 107.096 134.898 107.096 135.072 106.922C135.245 106.922 135.245 106.922 135.419 106.922C135.766 106.922 136.286 106.748 136.634 106.748H136.807C137.154 106.748 137.501 106.574 137.849 106.4C138.022 106.4 138.196 106.4 138.196 106.225C138.543 106.225 138.716 106.051 139.063 105.877C139.237 105.877 139.411 105.703 139.411 105.703C139.758 105.529 139.931 105.529 140.105 105.355C140.278 105.355 140.278 105.181 140.452 105.181C140.799 105.006 141.146 104.832 141.493 104.658L151.039 99.0855L160.412 93.687C166.66 94.2095 173.082 93.1646 178.463 90.9007C179.504 90.3783 180.545 90.03 181.587 89.5076C185.579 87.0695 188.009 84.1091 188.703 81.1486V77.3174L204.15 68.436C204.15 68.2619 203.977 68.0877 203.803 68.0877Z" fill="white"/>
</mask>
<g mask="url(#mask0_2305_3549)">
<path d="M157.288 100.129L159.197 91.073C160.586 89.854 162.148 88.4608 163.537 86.8935C178.29 70.5239 184.538 39.8744 177.769 18.6287C177.075 16.7131 176.38 14.9717 175.513 13.2302L177.422 3.82643L159.718 -0.00476074V0.169384C152.949 -0.70134 145.486 2.43327 138.543 10.0956C123.79 26.4653 117.542 57.1147 124.311 78.3604C127.435 88.1125 132.989 94.2076 139.411 96.2973V96.4715L157.288 100.129Z" fill="#23322D"/>
<path d="M194.664 57.6345C200.098 30.9688 192.094 6.8064 176.786 3.66631C161.479 0.526224 144.665 19.5975 139.231 46.2632C133.797 72.9289 141.802 97.0913 157.109 100.231C172.417 103.372 189.231 84.3002 194.664 57.6345Z" fill="#F8F0E5"/>
<path d="M189.565 56.5886C193.981 34.9168 187.435 15.2713 174.945 12.7092C162.455 10.147 148.75 25.6384 144.334 47.3102C139.918 68.982 146.463 88.6275 158.953 91.1896C171.443 93.7518 185.149 78.2604 189.565 56.5886Z" fill="#D05F0D"/>
</g>
<path d="M307.593 268.526L374.242 307.186L258.475 374.58L191.826 335.92L307.593 268.526ZM269.409 361.345L350.811 313.978C344.042 309.972 343.348 304.051 349.422 300.394C349.77 300.22 349.943 300.046 350.29 300.046L320.09 282.457C319.917 282.631 319.569 282.806 319.396 282.98C313.321 286.463 302.907 286.114 296.138 282.283L214.737 329.825C221.506 333.83 222.026 339.751 215.952 343.408L246.152 360.823C252.053 357.165 262.467 357.514 269.409 361.345Z" fill="white"/>
<path d="M307.593 257.728L374.242 296.389L258.475 363.783L191.826 325.122L307.593 257.728ZM269.409 350.548L350.811 303.18C344.042 299.175 343.348 293.254 349.422 289.597C349.77 289.423 349.943 289.249 350.29 289.249L320.09 271.66C319.917 271.834 319.569 272.008 319.396 272.182C313.321 275.665 302.907 275.317 296.138 271.486L214.737 319.027C221.506 323.033 222.026 328.954 215.952 332.611L246.152 350.025C252.053 346.368 262.467 346.542 269.409 350.548Z" fill="white"/>
<path d="M350.807 303.008L269.405 350.55C262.636 346.544 252.049 346.37 246.148 349.853L215.947 332.439C222.022 328.956 221.501 322.861 214.732 318.855L296.134 271.314C302.903 275.319 313.317 275.493 319.392 272.01C319.739 271.836 319.912 271.662 320.086 271.488L350.286 289.077C349.939 289.251 349.592 289.251 349.418 289.425C343.344 293.082 343.864 299.177 350.807 303.008ZM254.132 327.563C267.843 335.573 291.969 334.354 307.936 325.125C323.904 315.721 325.814 301.789 312.102 293.779C298.39 285.768 274.265 286.987 258.297 296.217C242.329 305.62 240.42 319.726 254.132 327.563Z" fill="#8ECC37"/>
<path d="M307.593 246.756L374.242 285.416L258.475 352.81L191.826 314.15L307.593 246.756ZM269.236 339.749L350.637 292.382C343.868 288.376 343.174 282.456 349.249 278.799C349.596 278.624 349.77 278.45 350.117 278.45L319.917 260.862C319.743 261.036 319.396 261.21 319.222 261.384C313.148 264.867 302.734 264.519 295.965 260.687L214.563 308.229C221.332 312.234 221.853 318.155 215.778 321.812L245.978 339.227C252.053 335.396 262.467 335.744 269.236 339.749Z" fill="white"/>
<path d="M350.635 292.207L269.233 339.749C262.464 335.743 252.05 335.569 245.976 339.052L215.775 321.638C221.85 318.155 221.33 312.06 214.561 308.054L295.962 260.513C302.731 264.518 313.145 264.692 319.22 261.209C319.567 261.035 319.74 260.861 319.914 260.687L350.114 278.275C349.767 278.45 349.42 278.45 349.246 278.624C343.345 282.281 343.866 288.202 350.635 292.207ZM254.133 316.761C267.845 324.772 291.97 323.553 307.938 314.323C323.906 304.92 325.815 290.988 312.104 282.977C298.392 274.967 274.267 276.186 258.299 285.415C242.331 294.819 240.422 308.751 254.133 316.761Z" fill="#8ECC37"/>
<path d="M312.106 272.181C325.818 280.191 323.909 294.123 307.941 303.527C291.973 312.931 267.848 313.975 254.136 305.965C240.424 297.954 242.334 284.023 258.302 274.793C274.269 265.389 298.395 264.17 312.106 272.181ZM294.924 299.87L297.701 301.437L303.255 298.302L300.478 296.735L303.081 295.168V289.247L297.701 286.112L292.841 285.242L274.79 289.421L273.228 289.073L272.187 288.55V286.983L278.956 282.978L285.725 281.062L282.08 276.709L274.443 278.972L272.187 280.366L269.41 278.798L263.856 281.933L266.633 283.5L263.856 285.067V290.988L269.236 294.123L274.096 294.994L292.147 290.814L293.709 291.163L294.75 291.685V293.252L287.981 297.258L281.212 299.173L284.857 303.527L292.494 301.263L294.924 299.87Z" fill="#278704"/>
<path d="M307.593 235.961L374.242 274.621L258.475 342.015L191.826 303.355L307.593 235.961ZM269.409 328.78L350.811 281.413C344.042 277.408 343.348 271.487 349.422 267.83C349.77 267.655 349.943 267.481 350.29 267.481L320.09 249.893C319.917 250.067 319.569 250.241 319.396 250.415C313.321 253.898 302.907 253.55 296.138 249.718L214.737 297.26C221.506 301.265 222.026 307.186 215.952 310.843L246.152 328.258C252.053 324.601 262.467 324.949 269.409 328.78Z" fill="white"/>
<path d="M350.807 281.41L269.405 328.951C262.636 324.946 252.049 324.772 246.148 328.255L215.947 310.84C222.022 307.358 221.501 301.262 214.732 297.257L296.134 249.716C302.903 253.721 313.317 253.895 319.392 250.412C319.739 250.238 319.912 250.064 320.086 249.89L350.286 267.478C349.939 267.653 349.592 267.653 349.418 267.827C343.344 271.31 343.864 277.405 350.807 281.41ZM254.132 305.964C267.843 313.975 291.969 312.756 307.936 303.526C323.904 294.123 325.814 280.191 312.102 272.18C298.39 264.17 274.265 265.389 258.297 274.618C242.329 284.022 240.42 297.954 254.132 305.964Z" fill="#8ECC37"/>
<path d="M312.106 261.213C325.818 269.224 323.909 283.156 307.941 292.56C291.973 301.963 267.848 303.008 254.136 294.998C240.424 286.987 242.334 273.055 258.302 263.826C274.269 254.422 298.395 253.377 312.106 261.213ZM294.924 289.077L297.701 290.644L303.255 287.509L300.478 285.942L303.081 284.375V278.454L297.701 275.319L292.841 274.449L274.79 278.628L273.228 278.28L272.187 277.757V276.19L278.956 272.185L285.725 270.269L282.08 265.915L274.443 268.179L272.187 269.398L269.41 267.831L263.856 270.966L266.633 272.533L263.856 274.1V280.021L269.236 283.156L274.096 284.026L292.147 279.847L293.709 280.195L294.75 280.718V282.285L287.981 286.29L281.212 288.206L284.857 292.56L292.494 290.296L294.924 289.077Z" fill="#278704"/>
<path d="M307.593 225.168L374.242 263.828L258.475 331.222L191.826 292.562L307.593 225.168ZM269.409 317.987L350.811 270.619C344.042 266.614 343.348 260.693 349.422 257.036C349.77 256.862 349.943 256.688 350.29 256.688L320.09 239.099C319.917 239.273 319.569 239.447 319.396 239.622C313.321 243.105 302.907 242.756 296.138 238.925L214.737 286.467C221.506 290.472 222.026 296.393 215.952 300.05L246.152 317.464C252.053 313.807 262.467 313.981 269.409 317.987Z" fill="white"/>
<path d="M281.906 265.915L285.551 270.269L278.956 272.184L272.187 276.19V277.757L273.054 278.279L274.79 278.628L292.841 274.448L297.7 275.319L303.081 278.453V284.2L300.304 285.768L303.081 287.509L297.7 290.644L294.923 289.076L292.667 290.295L285.03 292.559L281.212 288.206L287.981 286.29L294.75 282.285V280.717L293.882 280.195L292.146 279.847L274.096 284.026L269.41 283.155L264.029 280.021L263.855 274.274L266.633 272.707L263.855 270.965L269.41 267.831L272.187 269.398L274.269 268.179L281.906 265.915Z" fill="#8ECC37"/>
<path d="M350.807 270.445L269.405 317.986C262.636 313.981 252.049 313.807 246.148 317.29L215.947 299.875C222.022 296.393 221.501 290.297 214.732 286.292L296.134 238.751C302.903 242.756 313.317 242.93 319.392 239.447C319.739 239.273 319.912 239.099 320.086 238.925L350.286 256.513C349.939 256.688 349.592 256.688 349.418 256.862C343.344 260.519 343.864 266.614 350.807 270.445ZM254.132 294.999C267.843 303.01 291.969 301.791 307.936 292.561C323.904 283.158 325.814 269.226 312.102 261.215C298.39 253.205 274.265 254.424 258.297 263.653C242.329 273.057 240.42 287.163 254.132 294.999Z" fill="#8ECC37"/>
<path d="M374.24 263.827V270.445L258.473 337.839L258.646 331.221L374.24 263.827Z" fill="#23322D"/>
<path d="M312.106 250.415C325.818 258.425 323.909 272.357 307.941 281.761C291.973 291.165 267.848 292.21 254.136 284.199C240.424 276.188 242.334 262.257 258.302 253.027C274.269 243.623 298.395 242.578 312.106 250.415ZM294.924 278.104L297.701 279.671L303.255 276.537L300.478 274.969L303.255 273.402V267.481L297.874 264.346L293.014 263.476L274.964 267.655L273.402 267.307L272.36 266.784V265.217L279.129 261.212L285.898 259.296L282.253 254.943L274.617 257.206L272.36 258.425L269.583 256.858L264.029 259.993L266.806 261.56L264.203 263.127V269.048L269.583 272.183L274.443 273.054L292.494 268.874L294.056 269.222L295.097 269.745V271.312L288.328 275.318L281.559 277.233L285.204 281.587L292.841 279.323L294.924 278.104Z" fill="#278704"/>
<path d="M307.593 214.195L374.242 252.855L258.475 320.424L191.826 281.763L307.593 214.195ZM269.236 307.189L350.637 259.821C343.868 255.816 343.174 249.895 349.249 246.238C349.596 246.064 349.77 245.89 350.117 245.89L320.09 228.127C319.917 228.301 319.569 228.475 319.396 228.649C313.321 232.132 302.907 231.784 296.138 227.953L214.737 275.494C221.506 279.499 222.026 285.42 215.952 289.077L246.152 306.492C252.053 302.835 262.467 303.183 269.236 307.189Z" fill="white"/>
<path d="M281.906 255.116L285.551 259.47L278.956 261.385L272.187 265.216V266.784L273.054 267.48L274.79 267.829L292.841 263.649L297.7 264.346L303.081 267.48V273.401L300.304 274.968L303.081 276.536L297.7 279.845L294.923 278.103L292.667 279.496L285.03 281.586L281.212 277.407L287.981 275.491L294.75 271.486V269.918L293.882 269.396L292.146 269.048L274.096 273.227L269.41 272.356L264.029 269.222L263.855 263.301L266.633 261.733L263.855 260.166L269.41 257.032L272.187 258.599L274.269 257.38L281.906 255.116Z" fill="#8ECC37"/>
<path d="M350.635 259.644L269.233 307.186C262.464 303.18 252.05 303.006 245.976 306.489L215.775 289.075C221.85 285.592 221.33 279.497 214.561 275.491L295.962 227.95C302.731 231.955 313.145 232.129 319.22 228.646C319.567 228.472 319.74 228.298 319.914 228.124L350.114 245.712C349.767 245.887 349.42 245.887 349.246 246.061C343.345 249.718 343.866 255.813 350.635 259.644ZM254.133 284.198C267.845 292.209 291.97 290.99 307.938 281.76C323.906 272.357 325.815 258.425 312.104 250.414C298.392 242.404 274.267 243.623 258.299 252.852C242.331 262.256 240.422 276.188 254.133 284.198Z" fill="#8ECC37"/>
<path d="M374.24 252.855V259.472L258.473 327.041V320.423L374.24 252.855Z" fill="#23322D"/>
<path d="M307.593 203.396L374.242 242.056L258.475 309.45L191.826 270.79L307.593 203.396ZM269.409 296.215L350.811 248.847C344.042 244.842 343.348 238.921 349.422 235.264C349.77 235.09 349.943 234.916 350.29 234.916L320.09 217.327C319.917 217.501 319.569 217.675 319.396 217.85C313.321 221.332 302.907 220.984 296.138 217.153L214.737 264.694C221.506 268.7 222.026 274.621 215.952 278.278L246.152 295.692C252.053 292.035 262.467 292.384 269.409 296.215Z" fill="#045137"/>
<path d="M312.106 239.618C298.395 231.608 274.269 232.827 258.302 242.056C242.334 251.46 240.424 265.392 254.136 273.228C267.848 281.239 291.973 280.02 307.941 270.79C323.909 261.56 325.818 247.455 312.106 239.618ZM285.551 248.5L278.782 250.415L272.013 254.421V255.988L273.055 256.51L272.187 255.988V254.421L278.956 250.415L285.551 248.5Z" fill="white"/>
<path d="M305.161 243.626C294.747 237.53 276.523 238.401 264.373 245.541C252.224 252.681 250.835 263.304 261.249 269.225C271.663 275.32 289.887 274.449 302.037 267.309C314.186 260.343 315.575 249.721 305.161 243.626Z" fill="#97D6C3"/>
<path d="M350.807 248.844L269.405 296.386C262.636 292.381 252.049 292.206 246.148 295.689L215.947 278.275C222.022 274.792 221.501 268.697 214.732 264.692L296.134 217.15C302.903 221.155 313.317 221.33 319.392 217.847C319.739 217.672 319.912 217.498 320.086 217.324L350.286 234.913C349.939 235.087 349.592 235.087 349.418 235.261C343.344 238.744 343.864 244.839 350.807 248.844ZM254.132 273.399C267.843 281.409 291.969 280.19 307.936 270.961C323.904 261.557 325.814 247.625 312.102 239.615C298.39 231.604 274.265 232.823 258.297 242.053C242.329 251.457 240.42 265.388 254.132 273.399Z" fill="white"/>
<path d="M258.648 309.45L258.475 316.068L191.826 277.582V270.964L258.648 309.45Z" fill="#045137"/>
<path d="M374.24 242.055V248.673L258.473 316.067L258.646 309.449L374.24 242.055Z" fill="#23322D"/>
</g>
<defs>
<clipPath id="clip0_2305_3549">
<rect width="473.483" height="392" fill="white" transform="translate(-99.2422)"/>
</clipPath>
</defs>
</svg>
